<?xml version="1.0" encoding="utf-8"?>
<!-- Generator: Adobe Illustrator 26.5.0, SVG Export Plug-In . SVG Version: 6.00 Build 0)  -->
<svg version="1.1" id="Capa_1" xmlns="http://www.w3.org/2000/svg" xmlns:xlink="http://www.w3.org/1999/xlink" x="0px" y="0px"
	 viewBox="0 0 1920 1080" style="enable-background:new 0 0 1920 1080;" xml:space="preserve">
<style type="text/css">
	.st0{fill:#B3B3B3;}
	.st1{fill:#EB6952;}
	.st2{fill:#4FA6DB;}
	.st3{fill:#6EB1A0;}
	.st4{fill:#E29B97;}
	.st5{fill:#7E46DD;}
	.st6{fill:#FAAD17;}
	.st7{fill:#A89172;}
	.st8{fill:#464646;}
	.st9{fill:#494949;}
	.st10{fill:#474747;}
	.st11{fill:#4B4B4B;}
	.st12{fill:#424242;}
	.st13{fill:#454545;}
	.st14{fill:#BA807C;}
	.st15{fill:#484848;}
	.st16{fill:#4C4C4C;}
	.st17{fill:#4A4A4A;}
	.st18{fill:#4D4D4D;}
	.st19{fill:#494848;}
	.st20{fill:#444444;}
	.st21{fill:#434343;}
	.st22{fill:#4F4F4F;}
	.st23{fill:#505050;}
	.st24{fill:#393939;}
	.st25{fill:#414141;}
	.st26{fill:#404040;}
	.st27{fill:#4E4E4E;}
	.st28{fill:#AA7471;}
	.st29{fill:#383838;}
	.st30{fill:#3A3A3A;}
	.st31{fill:#3F3F3F;}
	.st32{fill:#373737;}
	.st33{fill:#3C3C3C;}
	.st34{fill:#343434;}
	.st35{fill:#323232;}
	.st36{fill:#333333;}
	.st37{fill:#3D3D3D;}
	.st38{fill:#282828;}
	.st39{fill:#303030;}
	.st40{fill:#313131;}
	.st41{fill:#242424;}
	.st42{fill:#202020;}
	.st43{fill:#2A2A2A;}
	.st44{fill:#292828;}
	.st45{fill:#292929;}
	.st46{fill:#232323;}
	.st47{fill:#1E1E1E;}
	.st48{fill:#3B3B3B;}
	.st49{fill:#131313;}
	.st50{fill:#1B1B1B;}
	.st51{fill:#252525;}
	.st52{fill:#272727;}
	.st53{fill:#2D2D2D;}
	.st54{fill:#262626;}
	.st55{fill:#2C2C2C;}
	.st56{fill:#181818;}
	.st57{fill:#845A58;}
	.st58{fill:#4D2A87;}
	.st59{fill:#191919;}
</style>
<g>
	<path d="M-1200,2076c0-1024,0-2048,0-3072c1440,0,2880,0,4320,0c0,1024,0,2048,0,3072C1680,2076,240,2076-1200,2076z"/>
	<path class="st0" d="M1535.2,80.4c33.92,0.96,64.79,6.3,91.43,26.1c3.47,2.58,6.83,5.32,10.28,7.93
		c7.46,5.66,10.59,11.62,7.32,21.97c-5.16,16.36-0.23,31.74,11.02,44.54c5.9,6.71,11.94,13.54,19.66,18.36
		c3.1,1.93,4.56,4.35,5.21,7.93c1.79,9.82,3.93,19.58,6.05,29.34c1.78,8.2,1.85,8.21,10.03,9.66c20.57,3.63,33.54,15.57,38.08,35.92
		c6.53,29.24,13.03,58.49,18.66,87.91c3.6,18.78-3.19,34.46-19.3,44.83c-6.98,4.49-8.05,8.79-6.16,16.32
		c4.28,17.1,7.81,34.41,11.26,51.7c10.31,51.65-5.39,94.2-46.48,126.66c-21.07,16.64-45.03,28.34-71.95,32.98
		c-7.21,1.24-14.28,3.27-21.48,4.6c-10.03,1.86-19.91,0.99-29.48-2.59c-2.17-0.81-4.32-1.79-6.3-2.99
		c-23.55-14.4-24.75-52.36-2.13-68.1c6.33-4.41,13.21-7.77,20.82-9.36c13.03-2.72,26.06-5.49,39.14-7.96
		c21.3-4.01,34.55-19.29,35.36-40.94c0.52-13.82-3.05-27.08-5.34-40.51c-3.2-18.7-6.94-37.31-7.24-56.41
		c-0.33-21.31,3.56-41.14,18.62-57.35c2.35-2.53,2.62-5.21,1.98-8.29c-1.5-7.17-3.05-14.33-4.42-21.52
		c-0.65-3.38-2.84-5.02-5.75-6.27c-18.56-7.98-29.9-22.81-38.06-40.55c-8.54-18.57-13.04-38.4-17.94-58.1
		c-2.96-11.94-5.12-24.11-9.86-35.56c-5.81-14.02-15.16-24.14-30.56-27.56c-6.31-1.4-12.51-1.13-18.8,0.33
		c-11.99,2.79-24.06,5.26-36.05,8.06c-9.58,2.24-19.13,2.58-28.73,0.45c-12.21-2.71-20.98-9.66-25.98-21.24
		c-11.46-26.58-0.3-50.63,27.92-60.13C1488.21,86.43,1523.32,80.58,1535.2,80.4z"/>
	<path class="st1" d="M652.21,559.35c26.94,10.35,53.33,20.48,79.71,30.63c18.63,7.17,37.38,14.06,55.86,21.61
		c21.76,8.89,33.66,28.22,32.3,51.21c-1.8,30.38-31.66,52.77-61.35,45.81c-5.48-1.28-10.83-3.26-16.1-5.27
		c-81.1-31.09-162.17-62.24-243.25-93.36c-6.85-2.63-13.55-5.45-19.42-10.05c-29.45-23.04-25.99-75.39,14.01-90.77
		c40.07-15.41,80.14-30.79,120.22-46.17c44.74-17.17,89.51-34.24,134.2-51.53c11.59-4.49,23.26-5.7,35.18-2.24
		c20.33,5.9,34.95,23.79,36.46,44.21c1.64,22.2-9.48,42.09-29.76,50.81c-18.33,7.88-37.16,14.61-55.79,21.78
		c-24.53,9.44-49.11,18.79-73.61,28.29C658.18,555.37,654.98,555.66,652.21,559.35z"/>
	<path class="st2" d="M1269.85,559.11c-2.37-3.59-5.97-3.84-8.96-4.99c-43.48-16.78-86.97-33.51-130.52-50.12
		c-18.72-7.14-30.23-20.04-33.23-40.09c-4.69-31.27,25.12-59.46,56.17-52.99c4.53,0.94,8.97,2.54,13.31,4.21
		c82.69,31.67,165.34,63.47,248.07,95.03c15.82,6.04,28.16,15.5,33.17,32.09c8.34,27.63-4.16,53.65-31.23,63.84
		c-53.89,20.31-107.57,41.18-161.33,61.82c-30.46,11.69-60.93,23.34-91.37,35.08c-10.93,4.22-22.01,5.16-33.26,1.72
		c-19.57-5.99-32.7-22.95-34.02-43.65c-1.22-19.11,10.41-38.19,29.14-46.05c17.8-7.46,35.97-14.03,54-20.96
		c27.03-10.39,54.08-20.75,81.11-31.15C1263.86,561.76,1266.76,560.43,1269.85,559.11z"/>
	<path class="st3" d="M934.6,323.67c11.49-26.44,57.37-39.23,83.72-5.92c8.69,10.99,12.12,23.76,9.96,37.56
		c-3.39,21.7-7.25,43.33-11.06,64.96c-11.67,66.21-23.43,132.4-35.1,198.6c-9.53,54.08-18.89,108.19-28.52,162.25
		c-3.7,20.75-15.34,35.37-35.71,41.65c-18.67,5.76-35.75,1.65-49.96-11.78c-13-12.28-18.2-27.85-15.15-45.46
		c11.89-68.53,24.1-137.01,36.18-205.51c3.81-21.63,7.57-43.27,11.37-64.91c1.55-8.82,1.57-8.81,10.63-8.84
		c41.26-0.12,74.53-27.51,82.24-67.68c7.33-38.24-14.27-76.54-51.58-91.56C939.21,326.08,936.35,325.91,934.6,323.67z"/>
	<path class="st4" d="M446.19,341.35c2.21,0.44,4.19,0.13,4.35-2.53c0.1-1.59-0.41-3.28-0.9-4.85
		c-26.47-84.13-98.97-123.61-160.73-126.39c-36.13-1.63-62.38-25.19-67.69-60.31c-5.54-36.58,22.18-72.77,59.06-77.13
		c40.27-4.76,74.64,23.29,77.81,63.71c0.33,4.19,1.7,7.64,3.77,11.13c15.27,25.83,35.27,47.33,58.19,66.62
		c20.18,16.98,41.95,28.86,68.69,31.21c10.52,0.92,21.07,2.99,31.31,6.09c4.77,1.44,5.34-0.96,3.91-4.8
		c-0.75-0.92-0.71-1.81,0.12-2.66c28.81,8.84,48.94,37.47,47.47,67.52c-1.56,32.02-24.53,59.17-55,65.03
		c-28.46,5.48-55.53-5.7-70.96-29.3C444.86,343.41,445.06,342.3,446.19,341.35z"/>
	<path class="st5" d="M1375.77,257.79c19.98-22.38,44.91-30.68,73.93-23.94c28.73,6.67,47.16,25.26,55.14,53.57
		c8.32,29.53-3.69,62.22-28.25,79.75c-4.13,2.95-6.96,3.13-11.38,0.15c-20.7-13.95-41.85-13.14-62.08,1.92
		c-2.78,2.07-4.98,4.17-8.76,1.81c-17.47-10.89-29.25-25.95-34.3-46.04c-0.21-0.84,0.29-1.85,0.68-3.93
		c13.15,8.49,24.66,17.8,34.06,29.64c0.83,1.04,1.47,2.28,2.42,3.17c2.12,1.97,2.95,7.76,7.03,4.44c3.54-2.88-0.88-5.95-2.6-8.36
		c-9.02-12.64-20.68-22.56-33.46-31.2c-25.04-16.93-52.98-27.84-80.82-38.99c-19.06-7.63-38.95-11.47-59.2-13.56
		c-19.53-2.01-37.8,2.01-54.21,13.16c-4.72,3.21-8.89,7.07-11.52,12.26c-0.61,1.21-0.52,2.66,0.74,3.58
		c1.22,0.89,2.54,0.7,3.58-0.31c0.94-0.92,1.67-2.06,2.55-3.06c12.61-14.2,29.21-18.7,47.52-20.16
		c-4.83,21.64-38.53,48.19-74.63,43.22c-40.96-5.64-68.14-38.02-66.39-78.98c1.56-36.51,32.21-67.86,68.48-70.04
		c39.25-2.36,73.41,23.45,78.99,59.79c-2.59,1.36-4.37-0.7-6.2-1.73c-19.02-10.68-37.14-22.43-48.87-41.66
		c-1.13-1.86-2.71-3.4-4.82-2.14c-2.24,1.34-1.17,3.48-0.19,5.27c3.72,6.79,8.73,12.58,14.26,17.93
		c11.12,10.74,23.83,19.36,37.54,26.29c19.01,9.62,37.99,19.47,57.66,27.6c22.24,9.2,45.86,14.26,69.84,16.04
		c21.05,1.57,40.13-4.95,56.33-18.91c1.51-1.3,3.01-2.64,4.38-4.09c1.32-1.4,3.22-2.96,1.46-5.06c-1.7-2.03-3.57-0.91-5.17,0.48
		c-1.51,1.31-2.92,2.74-4.45,4.02c-5.14,4.27-10.46,8.26-16.78,10.68C1376.12,260.83,1375.42,259.82,1375.77,257.79z"/>
	<path class="st3" d="M1304.55,907.15c9.05,18.02,10.08,35.81,4.53,53.91c-10.28,33.53-44.2,54.79-78.34,49.56
		c-36.14-5.53-62.61-35.08-62.17-70.85c0.34-28.2,13.05-50.18,38.09-63.54c24.61-13.13,49.33-11.54,73.15,3.04
		c1.42,0.87,2.68,1.98,4.09,2.86c3.51,2.19,3.31,4.7,0.51,7.19c-12.9,11.49-27.03,19.45-45.27,15.84
		c-10.5-2.08-20.65-5.19-30.48-9.37c-1.84-0.78-3.65-1.64-5.5-2.37c-2.33-0.91-5.34-3.32-6.79,0.26c-1.38,3.4,2.36,4.19,4.62,5.25
		c13.03,6.12,26.55,10.98,40.86,12.67c20.28,2.39,36.44-6.42,49.29-21.15c9.26-10.61,15.51-23.29,19.62-36.8
		c3.9-12.79,1.43-25.8,0.19-38.68c-1.12-11.65-2.07-23.18,0.99-34.73c9.48-35.79,43.6-57.28,76.9-53.24
		c37.82,4.59,64.98,35.04,64.78,71.72c-0.2,38.05-30.22,69.28-68.25,71.55c-12.61,0.75-25.14,2.69-37.7,4.17
		c-1.62,0.19-3.26,0.76-4.76,1.43c-21.54,9.57-41.08,22.01-56.49,40.17c-11.44,13.49-16.19,28.86-12.36,46.47
		c0.42,1.95,0.75,3.93,1.4,5.8c0.54,1.56,1.46,3.14,3.61,2.35c1.41-0.52,1.97-1.79,1.82-3.19c-0.29-2.65-0.59-5.31-1.14-7.91
		c-3.15-14.88,1.5-27.6,10.78-39.01C1294.28,915.95,1298.07,911.3,1304.55,907.15z"/>
	<path class="st6" d="M850.17,145.28c0,2,0.11,4-0.02,5.99c-0.44,6.76-0.51,6.99-6.84,5.93c-37.15-6.22-69.81,30.8-55.23,68.75
		c1.5,3.89,2.59,6.79-0.78,10.76c-28.03,32.99-54.42,67.37-83.63,99.36c-9.43,10.33-18.92,20.61-28.56,30.75
		c-5.52,5.81-11.61,11.07-18.96,14.48c-9.67,4.49-15.21,0.99-16.09-9.8c-0.52-6.43,0.75-12.65,2.48-18.72
		c20.24-71.04,36.87-143,55.01-214.57c1.23-4.83,1.95-9.81,3.39-14.57c10.96-36.15,46.98-58.82,84.52-53.3
		C822.29,75.75,849.94,107.72,850.17,145.28z"/>
	<path class="st0" d="M508.83,1008.26c-16.79,0.26-32.24-5.11-46.27-14.98c-7.38-5.19-14.16-11.09-20.74-17.24
		c-49.18-45.95-98.19-92.08-146.34-139.12c-4.28-4.18-8.31-8.64-12.23-13.17c-2.84-3.28-5.13-7.02-6.44-11.2
		c-1.91-6.13,0.12-9.59,6.56-10.76c7-1.26,13.97-0.4,20.77,1.47c30.8,8.48,61.57,17.01,92.34,25.59
		c38.78,10.81,77.42,22.12,116.48,31.92c2.26,0.57,4.51,1.16,6.74,1.84c9.76,2.95,9.8,2.96,10.03,13.57
		c0.37,16.92,5.78,32.14,16.41,45.16c8.63,10.57,17.9,20.79,29.95,27.64c4.84,2.75,5.33,5.7,3.7,10.43
		C569.31,989.84,540.32,1009.63,508.83,1008.26z"/>
	<path class="st1" d="M283.73,495.25c-8.05,17.62-21.19,30.21-39.89,35.85c-26.56,8.01-50.44,2.19-69.14-18.58
		c-18.67-20.74-22.43-45.17-11.27-70.63c11.21-25.58,32.18-38.17,59.88-39.4c7.68-0.34,15.22,1.43,22.5,3.95
		c2.86,0.99,4.01,2.48,3.24,6c-2.62,12.02-4.29,24.26-9.56,35.55c-0.56,1.2-1.05,2.44-1.45,3.7c-0.43,1.38-0.11,2.94,1.01,3.6
		c1.66,0.97,3.32,0.1,4.16-1.5c4.22-8,7.04-16.51,8.78-25.37c1.6-8.15,2.64-16.44,6.09-24.12c9.8-21.78,24.64-37.98,49.1-42.7
		c35.38-6.83,71.73,21.37,74.84,57.74c1.6,18.69-2.75,35.78-14.54,50.52c-11.68,14.59-26.87,21.35-45.71,18.87
		c-18.26-2.41-36.53-1.99-54.82-0.4c-1.99,0.17-3.99,0.4-5.92,0.84c-1.87,0.43-4.28,0.75-3.58,3.61c0.47,1.94,2.28,2.23,4.01,2.12
		c5.65-0.38,11.29-0.85,16.93-1.2C279.95,493.59,281.66,493.19,283.73,495.25z"/>
	<path class="st4" d="M1563.98,562.35c-0.98,3.55-3.56,4.08-5.39,5.37c-25.32,17.77-27.23,54.81-3.85,75.26
		c3.25,2.84,6.41,5.79,9.7,8.6c13.11,11.19,28.57,14.05,44.93,11.16c14.7-2.6,29.52-5.06,43.7-10.04c3.21-1.13,5.62-0.65,8.09,1.76
		c20.02,19.54,40.7,38.45,60.04,58.64c18.75,19.58,17.53,50.46-1.29,69.64c-18.9,19.25-49.17,20.67-69.63,2.71
		c-11-9.66-21.27-20.16-31.81-30.34c-37.87-36.54-75.66-73.18-113.63-109.62c-10-9.6-16.88-20.72-17.89-34.65
		c-1.5-20.73,6.57-37.26,24.3-48.1C1528.55,552.15,1546.32,553.01,1563.98,562.35z"/>
	<path class="st3" d="M353.31,235.59c29.5,13.32,56.18,30.2,72,60.05c4.72,8.9,3.7,19.04,2.12,28.34
		c-9.8,57.75-20.2,115.41-30.41,173.09c-3.02,17.04-5.7,34.16-9.19,51.1c-4.13,20.06-21.48,34.39-41.83,35.45
		c-19.58,1.02-38.01-11.71-44.52-30.67c-2.09-6.1-2.83-12.38-1.96-18.71c1.22-8.9,3.15-17.7,4.23-26.62c0.6-4.96,3.14-6.03,7.4-5.58
		c3.97,0.43,7.97,0.58,11.93,1.11c37.58,5.03,66.1-15.67,72.7-53.13c4.39-24.93-2.11-46.64-19.47-65.35
		c-11.51-12.41-23.74-23.43-40.64-27.67c-4.38-1.1-4.67-3.54-3.99-7.35c3.02-16.7,5.78-33.45,8.7-50.18
		c3.26-18.69,6.58-37.37,9.91-56.05C350.73,240.86,350.89,238.14,353.31,235.59z"/>
	<path class="st6" d="M541.6,736.51c0.36,41.69-33.92,76.52-75.86,77.09c-41.98,0.57-77.35-34.46-77.35-76.6
		c0-41.75,34.56-76.41,76.37-76.59C506.48,660.22,541.24,694.65,541.6,736.51z"/>
	<path class="st6" d="M988.28,403.88c0.05,42.35-33.64,76.26-75.91,76.41c-42.8,0.15-76.81-33.86-76.66-76.66
		c0.15-42.27,34.06-75.95,76.41-75.9C954.44,327.77,988.23,361.57,988.28,403.88z"/>
	<path class="st3" d="M535.72,872.98c0.22-39.79,32.13-71.35,72.05-71.26c39.6,0.09,71.85,32.34,71.82,71.81
		c-0.03,39.66-33.37,72.64-72.86,72.06C567.1,945.01,535.51,912.71,535.72,872.98z"/>
	<path class="st2" d="M1588.29,927.49c0.02,38.09-30.29,68.63-68.28,68.79c-38.41,0.17-69.6-30.65-69.61-68.77
		c-0.01-37.91,31.75-69.44,69.58-69.09C1557.81,858.76,1588.27,889.57,1588.29,927.49z"/>
	<path class="st3" d="M445.64,221.3c-1.71-0.52-2.77-0.58-3.51-1.1c-26.26-18.17-49.58-39.25-65.44-67.46
		c-7.9-14.05-6.86-27.61,5.06-38.82c13.69-12.87,33.96-16.41,50.92-8.26c17.04,8.18,27.63,25.62,25.05,44.86
		C454.54,174.12,449.77,197.51,445.64,221.3z"/>
	<path class="st4" d="M837.94,984.28c-25.07-0.23-44.55-20.32-44.22-45.61c0.32-24.41,20.52-44.34,44.86-44.27
		c24.61,0.07,45.24,20.88,45.01,45.41C883.37,964.63,862.96,984.5,837.94,984.28z"/>
	<path class="st5" d="M1043.11,807.73c24.45,0.24,44.39,20.24,44.48,44.64c0.1,24.56-20.6,45.29-45.18,45.23
		c-24.77-0.06-44.81-20.43-44.69-45.43C997.84,827.08,1017.87,807.48,1043.11,807.73z"/>
	<path class="st5" d="M1738.28,147.83c-0.12,25.08-20.15,44.69-45.39,44.44c-24.46-0.24-44.39-20.24-44.49-44.63
		c-0.1-24.56,20.61-45.3,45.18-45.23C1718.36,102.47,1738.4,122.84,1738.28,147.83z"/>
	<path class="st1" d="M1435.28,363.72c25.21-0.1,45.03,19.64,45,44.83c-0.03,24.93-20.4,45.28-45.08,45.04
		c-24.26-0.24-44.45-20.36-44.79-44.63C1390.06,384.29,1410.37,363.82,1435.28,363.72z"/>
	<path class="st1" d="M880.28,207.4c0.05,25.19-19.75,44.96-44.95,44.88c-24.91-0.07-45.24-20.52-44.93-45.2
		c0.3-24.26,20.48-44.41,44.74-44.68C859.83,162.13,880.23,182.47,880.28,207.4z"/>
	<path class="st0" d="M1665.6,918.28c-25.02-0.36-44.32-20.58-43.87-45.95c0.43-24.34,20.89-44.23,45.19-43.93
		c24.65,0.31,45.13,21.29,44.66,45.75C1711.1,899.05,1690.69,918.64,1665.6,918.28z"/>
	<path class="st7" d="M256.29,903.48c0.02,25.15-19.85,44.91-45.04,44.81c-24.49-0.1-44.49-19.84-44.85-44.29
		c-0.36-24.43,20.29-45.44,44.82-45.6C235.93,858.24,256.27,878.58,256.29,903.48z"/>
	<path class="st8" d="M2631.32,836.29c-0.01,2.14-0.58,3.96-3.04,4.23c-3.07,0.33-6.2-3.37-6.3-7.43c-0.05-2.08,0.49-4.05,2.91-4.38
		C2627.58,828.34,2631.06,832.58,2631.32,836.29z"/>
	<path class="st8" d="M2691.44,567.17c-0.3,1.91-1.14,3.61-3.68,3.41c-3.21-0.25-6.05-4.18-5.8-8.02c0.14-2.17,1.07-3.86,3.57-3.73
		C2688.41,558.99,2691.53,563.38,2691.44,567.17z"/>
	<path class="st9" d="M1371.85,900.54c-0.48,2.56-1.5,5.03-4.36,4.26c-3.71-1-4.76-4.33-4.45-7.86c0.18-2.01,1.22-4.23,3.65-3.75
		C1370.52,893.96,1371.61,897.12,1371.85,900.54z"/>
	<path class="st8" d="M2923.2,752.96c2.53-0.25,6.24,4.09,6.44,7.66c0.12,2.18-0.81,3.95-3.01,4.4c-2.61,0.53-6.09-3.76-6.33-7.57
		C2920.17,755.27,2920.97,753.64,2923.2,752.96z"/>
	<path class="st9" d="M2392.03,632.96c3.35,0.26,6.24,4.56,5.86,8.32c-0.19,1.89-1.17,3.15-3.04,3.34c-3,0.31-6.49-4-6.22-7.75
		C2388.79,634.75,2389.77,633.06,2392.03,632.96z"/>
	<path class="st9" d="M1078.69,974.57c-0.11,2.06-0.59,4.33-3.42,4.88c-2.88,0.56-5.37-2.62-5.39-6.82
		c-0.01-2.4,0.35-4.79,3.19-5.36C1075.68,966.74,1078.53,970.4,1078.69,974.57z"/>
	<path class="st10" d="M-276.51,1069.98c-0.27,3.32-1.1,6.08-4.44,6c-3.2-0.07-4.43-2.69-4.39-5.62c0.04-2.87,1.15-5.65,4.34-5.7
		C-277.6,1064.61-277.45,1068.01-276.51,1069.98z"/>
	<path class="st10" d="M397.46,662.36c-0.05,2.63-0.71,5.07-3.5,5.24c-3.72,0.22-4.95-2.75-5.35-5.79
		c-0.32-2.49,0.74-4.83,3.47-5.09C396.05,656.33,396.61,659.67,397.46,662.36z"/>
	<path class="st11" d="M931.88,1011.19c-0.26,2.38-0.78,4.62-3.75,4.8c-2.95,0.18-5.22-3.14-4.8-7.15c0.25-2.39,1.11-4.86,4.08-4.33
		C930.87,1005.12,931.75,1008.04,931.88,1011.19z"/>
	<path class="st8" d="M909.61,303.74c-0.09,2.15-0.89,3.85-3.21,4.24c-2.84,0.47-5.98-2.99-5.84-6.51c0.08-2.08,0.99-3.86,3.24-4.31
		C906.49,296.61,909.55,300.16,909.61,303.74z"/>
	<path class="st10" d="M151.4,955.33c3.27,1.01,4.25,3.68,4.29,6.76c0.03,2.42-0.84,4.61-3.64,4.93c-2.57,0.3-5.45-3.82-5.04-7.18
		C147.31,957.39,148.57,955.61,151.4,955.33z"/>
	<path class="st12" d="M-425.32,1100.89c3.57,1.03,4.98,3.53,4.83,6.79c-0.13,2.8-1.29,5.57-4.63,5.25
		c-3.15-0.3-4.25-3.19-4.09-5.93C-429.06,1104.45-428.41,1101.68-425.32,1100.89z"/>
	<path class="st13" d="M2167.34,444.4c3.9,1.16,5.31,3.98,5.51,7.41c0.13,2.15-1.15,4.03-3.47,3.76c-4.04-0.47-4.96-3.71-5.14-7.13
		C2164.13,446.25,2165.21,444.8,2167.34,444.4z"/>
	<path class="st8" d="M2478.22,877.79c-3.65-0.77-5.31-3.44-5.52-7.03c-0.13-2.07,0.74-4.31,3.22-4.06
		c3.94,0.39,5.34,3.48,5.69,6.99C2481.83,875.85,2481,877.59,2478.22,877.79z"/>
	<path class="st9" d="M3069.08,719.36c0.09-2.09,0.7-3.95,3.04-4.31c2.85-0.44,5.93,3.38,6.13,7.52c0.09,1.99-0.09,4.13-2.65,4.41
		C3073.07,727.25,3069.32,722.7,3069.08,719.36z"/>
	<path class="st9" d="M2832.82,522.22c1.88,0.11,5.26,4.4,4.97,7.74c-0.18,2.16-1.3,3.72-3.73,3.42c-2.68-0.32-5.94-5.23-5.46-8.28
		C2828.86,523.44,2829.81,522.12,2832.82,522.22z"/>
	<path class="st14" d="M446.19,341.35c-0.2,1.11-0.4,2.22-0.61,3.34c-5.61-6.39-8.47-14.02-10.07-22.22
		c-0.59-2.22,0.4-2.86,2.44-2.44C440.69,327.14,443.44,334.25,446.19,341.35z"/>
	<path class="st13" d="M2374.94,154.5c3.52,0.83,4.67,3.76,4.88,7.28c0.11,1.82-0.78,3.31-2.65,3.64c-2.49,0.44-5.88-3.5-6.06-6.82
		C2371,156.43,2372.61,154.49,2374.94,154.5z"/>
	<path class="st11" d="M11.62,998.09c-0.25,2.99-1.04,5.68-4.51,5.3c-3.33-0.37-3.75-3.43-3.82-6.04c-0.06-2.29,0.39-4.94,3.41-5.1
		C10.76,992.04,11.25,995.18,11.62,998.09z"/>
	<path class="st15" d="M-713.33,1174.33c3.47,0.5,3.93,3.26,4.07,5.87c0.14,2.74-0.58,5.71-4.03,5.58
		c-3.13-0.12-4.23-2.79-4.27-5.67C-717.61,1177.17-716.4,1175.03-713.33,1174.33z"/>
	<path class="st8" d="M-852.76,1216.5c-0.81,2.67-1.08,6.28-4.9,5.95c-2.98-0.25-3.97-3.21-3.8-5.91c0.16-2.6,1-5.66,4.18-5.58
		C-854.38,1211.03-853.09,1213.61-852.76,1216.5z"/>
	<path class="st13" d="M2799.01,47.07c3.85,0.57,5.73,3.18,6.29,6.72c0.35,2.23-0.84,4.05-3.3,3.97c-3.69-0.11-4.96-2.93-5.62-5.99
		C2795.91,49.6,2796.66,47.85,2799.01,47.07z"/>
	<path class="st16" d="M2544.15,603.39c-0.17,2.37-0.91,3.82-2.8,4.07c-2.64,0.35-6.17-4.39-5.9-7.89c0.18-2.32,1.67-3.81,3.91-3.24
		C2543.13,597.3,2544.02,600.48,2544.15,603.39z"/>
	<path class="st8" d="M1952.2,273.15c-3.01,0-5.97-3.69-5.64-7.07c0.21-2.2,1.41-3.97,3.81-3.53c3.41,0.62,4.81,3.35,5.04,6.5
		C1955.57,271.18,1954.54,272.88,1952.2,273.15z"/>
	<path class="st16" d="M784.8,1048.28c-0.17,1.96-0.2,4.83-3.26,4.71c-3.7-0.15-4.52-3.5-4.69-6.43c-0.13-2.19,0.35-4.8,3.37-5.17
		C782.58,1041.11,784.64,1044.17,784.8,1048.28z"/>
	<path class="st9" d="M2743.3,298.56c3.68,0.67,5.2,3.5,5.8,6.8c0.38,2.08-0.72,4.18-3.07,3.97c-3.75-0.33-5.5-3.14-5.93-6.62
		C2739.84,300.62,2740.72,298.9,2743.3,298.56z"/>
	<path class="st17" d="M-739.63,944.18c3.29,0.84,3.83,3.34,3.51,6.1c-0.33,2.76-1.53,5.57-4.83,4.7c-2.92-0.76-3.28-3.83-2.99-6.54
		C-743.67,945.96-742.51,944.11-739.63,944.18z"/>
	<path class="st10" d="M299.71,925.53c-0.59,2.32-1,5.13-3.83,4.98c-3.83-0.21-4.12-3.53-4.17-6.51c-0.04-2.32,0.2-5.13,3.31-4.82
		C298.5,919.52,299.34,922.58,299.71,925.53z"/>
	<path class="st18" d="M2984.04,492.66c-0.32,1.77-1.15,3.11-3.15,3.04c-3.02-0.11-6.36-4.56-5.88-7.96
		c0.24-1.7,1.15-3.12,3.18-3.07C2981.16,484.74,2984.34,489.12,2984.04,492.66z"/>
	<path class="st9" d="M2251.22,677.21c-0.07,2.24-0.69,4.42-3.12,4.24c-3.9-0.3-5.42-3.38-5.85-6.81c-0.26-2.09,0.76-4.24,3.11-4.17
		C2249.51,670.6,2250.23,674.18,2251.22,677.21z"/>
	<path class="st8" d="M-452.59,877.9c-0.52,2.59-1.04,5.66-4.26,5.56c-3.03-0.09-4.15-2.97-4.21-5.65c-0.06-2.74,1.14-5.52,4.23-5.5
		C-453.69,872.32-452.99,875.23-452.59,877.9z"/>
	<path class="st17" d="M2887.05,262.28c4.05,0.22,5.17,3.33,5.82,6.64c0.33,1.65-0.22,3.34-2.07,3.98
		c-2.39,0.83-5.93-2.46-6.54-5.99C2883.9,264.76,2885.15,262.57,2887.05,262.28z"/>
	<path class="st17" d="M2028.15,488.14c-0.2,1.89-0.82,3.87-3.43,3.49c-3.56-0.52-4.67-3.23-4.76-6.43
		c-0.06-2.11,0.66-4.02,3.03-4.35C2025.81,480.46,2028.34,484.06,2028.15,488.14z"/>
	<path class="st19" d="M1811.47,789.58c-0.35,1.84-1.12,3.93-3.52,3.64c-4.07-0.49-4.92-3.9-5.16-7.21
		c-0.15-2.09,1.1-3.79,3.48-3.85C1808.96,782.09,1811.66,785.94,1811.47,789.58z"/>
	<path class="st17" d="M3034.33,236.54c-3.16,0.03-6.23-3.88-6.05-7.7c0.09-1.87,1.02-3.18,2.9-3.26c2.86-0.13,6.35,4.37,6.16,7.77
		C3037.23,235.21,3036.22,236.31,3034.33,236.54z"/>
	<path class="st11" d="M-1141.75,1289.46c-0.18,2.6,0.04,5.81-3.61,5.96c-3.5,0.14-4.11-2.86-4.17-5.61
		c-0.06-2.87,0.85-5.54,4.3-5.5C-1142.08,1284.35-1142.04,1287.1-1141.75,1289.46z"/>
	<path class="st17" d="M732.06,816.01c-0.26,2.61-1.09,4.96-3.96,4.71c-3.81-0.32-4.28-3.5-4.3-6.55c-0.02-2.38,0.44-5.04,3.57-4.59
		C730.83,810.08,731.73,813.06,732.06,816.01z"/>
	<path class="st20" d="M2163.05-12.57c-0.1,1.86-1.12,3.11-2.88,3.41c-2.75,0.48-5.79-2.93-5.84-6.54c-0.03-2.1,0.63-3.98,3.2-3.98
		C2160.16-19.68,2163.12-15.76,2163.05-12.57z"/>
	<path class="st11" d="M2099.45,707.63c3.04,0.45,6.01,5.22,5.15,8.56c-0.43,1.66-1.46,3.07-3.49,2.89
		c-3.05-0.27-5.79-4.92-5.04-8.59C2096.43,708.75,2097.36,707.46,2099.45,707.63z"/>
	<path class="st18" d="M1020.02,742.38c0,2.61-0.46,5.15-3.32,5.16c-3.71,0.01-4.58-3.08-4.87-6.1c-0.23-2.42,0.43-4.96,3.28-4.95
		C1018.76,736.51,1019.68,739.48,1020.02,742.38z"/>
	<path class="st11" d="M1951.97,744.8c2.75-0.33,5.82,3.17,5.95,6.73c0.08,2.11-0.59,4.2-2.95,4.31c-3.68,0.18-4.9-2.7-5.62-5.68
		C1948.75,747.67,1949.46,745.68,1951.97,744.8z"/>
	<path class="st10" d="M2017.73,15.16c3.67,0.55,5.29,2.87,5.78,6.04c0.33,2.11-0.32,4.35-2.71,4.46c-3.68,0.16-5.03-2.63-5.5-5.79
		C2014.98,17.75,2015.74,16.04,2017.73,15.16z"/>
	<path class="st13" d="M167.2,262.48c3.07,0.59,4.46,2.69,4.39,5.63c-0.06,2.4-0.85,4.89-3.88,4.66c-2.77-0.21-3.66-2.55-3.82-5
		C163.72,265.31,164.26,263.15,167.2,262.48z"/>
	<path class="st16" d="M2774.29,791.08c4.21,0.62,7.17,7.1,4.98,10.24c-0.8,1.14-2.04,1.54-3.43,1.01
		c-3.24-1.24-5.42-7.17-3.57-9.99C2772.72,791.67,2773.77,791.39,2774.29,791.08z"/>
	<path class="st16" d="M108.96,728.4c3.32,0.35,4.56,2.57,4.84,5.31c0.28,2.77-0.4,5.48-3.79,5.62c-2.83,0.12-3.69-2.35-4.03-4.64
		C105.57,732,106,729.49,108.96,728.4z"/>
	<path class="st11" d="M2316.79,415.53c-0.31,1.97-1.1,4.13-3.61,3.56c-3.78-0.86-5.1-3.97-5.05-7.57c0.03-1.78,1.09-3.14,3.07-3.21
		C2314.1,408.21,2316.86,411.77,2316.79,415.53z"/>
	<path class="st9" d="M1879.34,50.86c3.05,0.37,5.35,4.05,4.6,7.53c-0.37,1.74-1.38,2.99-3.36,2.85c-2.88-0.21-5.28-4.1-4.58-7.57
		C1876.34,52,1877.19,50.58,1879.34,50.86z"/>
	<path class="st10" d="M-311.66,841.14c-0.08,2.83,0.05,5.73-2.84,6.1c-3.4,0.43-4.38-2.52-4.63-5.25
		c-0.26-2.81,0.35-5.66,3.98-5.53C-312.11,836.57-311.99,839.32-311.66,841.14z"/>
	<path class="st20" d="M2435.19-90.53c3.59,0.21,5.11,2.64,5.92,5.69c0.58,2.17-0.05,4.4-2.38,4.56c-3.54,0.25-5.13-2.51-5.99-5.54
		C2432.11-88.02,2432.96-89.67,2435.19-90.53z"/>
	<path class="st9" d="M247.71,697.62c0.2-2.35,0.33-5.16,3.4-4.92c3.66,0.28,4.43,3.42,4.38,6.5c-0.05,2.5-1.18,4.68-4.08,4.33
		C248.02,703.11,247.88,700.24,247.71,697.62z"/>
	<path class="st15" d="M2575.82-125.52c3.42,1.23,4.98,3.93,4.69,7.57c-0.14,1.71-1.45,3.27-3.37,2.78
		c-3.8-0.96-5.12-3.92-4.83-7.54C2572.45-124.44,2573.52-125.75,2575.82-125.52z"/>
	<path class="st11" d="M-598.04,919.3c-3.24-0.35-3.94-2.76-4.11-5.49c-0.15-2.37,0.16-4.95,2.92-5.39
		c3.34-0.53,4.46,2.09,4.75,4.83C-594.18,915.95-594.62,918.48-598.04,919.3z"/>
	<path class="st13" d="M2663.28,89.9c-0.16,1.87-0.82,3.85-3.38,3.53c-3.44-0.44-4.81-3.18-5.37-6.19c-0.4-2.15,0.62-3.95,2.92-4.33
		C2660.11,82.48,2663.14,86.13,2663.28,89.9z"/>
	<path class="st10" d="M34.26,302.76c-0.31,2.61-0.79,5.08-3.9,4.58c-3.06-0.5-4.08-3.05-3.92-5.82c0.14-2.37,1.16-4.73,4.05-4.39
		C33.78,297.52,34.06,300.35,34.26,302.76z"/>
	<path class="st20" d="M857.05,95.25c-0.25,2.15-0.99,4.13-3.36,4.05c-3.57-0.12-4.87-2.92-5.25-5.9c-0.31-2.48,0.91-4.82,3.7-4.47
		C855.5,89.35,856.48,92.34,857.05,95.25z"/>
	<path class="st17" d="M634.81,1089.88c-3.15-0.35-4.35-2.57-4.49-5.35c-0.13-2.63,0.2-5.68,3.76-5.49
		c3.17,0.17,3.92,2.99,4.01,5.73C638.17,1087.11,637.83,1089.36,634.81,1089.88z"/>
	<path class="st10" d="M-877.96,985.46c-0.27,2.57-0.49,5.61-4.11,5.44c-2.79-0.13-3.59-2.65-3.61-5.09
		c-0.03-2.82,0.66-5.6,4.16-5.52C-878.56,980.36-878.11,982.9-877.96,985.46z"/>
	<path class="st10" d="M491.68,1122.04c-0.11,2.49-0.54,5.15-3.32,5.16c-3.76,0.01-4.52-3.2-4.53-6.21c0-2.28,0.68-4.85,3.73-4.52
		C490.71,1116.8,491.4,1119.46,491.68,1122.04z"/>
	<path class="st15" d="M341.32,1164.88c-3.43-1.1-4.19-3.89-3.95-6.97c0.17-2.28,0.87-5.12,3.96-4.27c3.41,0.93,3.81,4.17,3.56,7.23
		C344.72,1162.94,343.8,1164.64,341.32,1164.88z"/>
	<path class="st20" d="M-1019.61,1021.04c-0.34,2.48-0.39,5.74-3.82,5.76c-3.32,0.02-4.05-3.14-3.96-5.78
		c0.08-2.65,0.95-5.63,4.43-5.35C-1020.12,1015.89-1019.72,1018.5-1019.61,1021.04z"/>
	<path class="st15" d="M198.12,1195.98c-0.16,2.81-0.25,5.54-3.39,5.47c-3.32-0.07-4.21-2.84-4.3-5.62
		c-0.08-2.42,0.61-5.01,3.51-5.04C197.42,1190.75,197.75,1193.76,198.12,1195.98z"/>
	<path class="st9" d="M-132.54,1034.41c-0.4,2.85-1.12,5.21-3.98,5.13c-3.55-0.1-3.69-3.06-3.79-5.68c-0.09-2.33,0.13-5.16,3-5.24
		C-133.44,1028.5-133.28,1032.07-132.54,1034.41z"/>
	<path class="st21" d="M48.03,1238.75c-3.37-1.11-4.06-3.94-3.87-7.06c0.12-2.01,0.9-4.38,3.39-3.97c3.72,0.6,4.22,3.82,4.07,6.92
		C51.5,1236.66,50.76,1238.58,48.03,1238.75z"/>
	<path class="st15" d="M-997.65,1252.68c-0.07,2.75-0.2,5.97-3.54,6.22c-3.46,0.26-4.06-3.06-4.18-5.69
		c-0.13-2.77,0.69-5.68,4.2-5.62C-998.15,1247.63-997.84,1250.3-997.65,1252.68z"/>
	<path class="st17" d="M2093.19,237.01c-3.39-1.14-5.16-3.6-4.94-7.27c0.13-2.21,1.52-3.88,3.82-3.24c3.71,1.03,4.82,4.12,4.5,7.62
		C2096.4,235.76,2095.41,237.16,2093.19,237.01z"/>
	<path class="st13" d="M1322.07,192.03c3.46,0.26,4.82,2.77,5.25,5.84c0.3,2.17-0.82,3.98-3.16,4.09c-3.74,0.17-5.07-2.54-5.46-5.64
		C1318.43,194.17,1319.64,192.62,1322.07,192.03z"/>
	<path class="st20" d="M-546.64,228.73c2.85,0.08,4.04,2.01,4.36,4.46c0.33,2.49-0.51,4.92-3.2,5.38c-2.91,0.49-4.03-1.81-4.31-4.3
		C-550.07,231.78-549.36,229.67-546.64,228.73z"/>
	<path class="st16" d="M-1161.67,1057.09c-0.08,2.38-0.16,5.29-3.07,5.47c-3.35,0.21-4.39-2.73-4.39-5.53c0-2.84,1.18-5.7,4.48-5.46
		C-1161.7,1051.78-1161.8,1054.75-1161.67,1057.09z"/>
	<path class="st15" d="M1808.41,298.43c3.71,0.37,4.58,3.23,5.05,6.11c0.34,2.07-0.73,4.19-2.89,4.31
		c-3.08,0.16-4.47-2.22-4.83-5.01C1805.44,301.55,1805.53,299.26,1808.41,298.43z"/>
	<path class="st8" d="M766.69,343.5c-2.88-0.39-4.36-2.34-4.73-5.2c-0.32-2.48,0.35-5.15,3.03-5.28c3.71-0.18,4.65,3.08,4.9,6.1
		C770.07,341.17,769.21,342.97,766.69,343.5z"/>
	<path class="st9" d="M2605.14,341.94c-0.07,2.03-0.88,3.89-3.27,3.85c-3.61-0.06-4.8-2.9-5.48-5.84c-0.48-2.08,0.14-4.04,2.44-4.59
		C2601.16,334.81,2604.83,338.73,2605.14,341.94z"/>
	<path class="st18" d="M1448.35,638.29c-3.41-1.26-4.67-4.08-4.32-7.64c0.21-2.07,1.38-4.06,3.8-3.24c3.7,1.25,4.47,4.43,3.97,7.96
		C1451.56,637.15,1450.59,638.33,1448.35,638.29z"/>
	<path class="st10" d="M-762.15,725.87c-0.39,3-0.99,5.58-3.86,5.5c-3.53-0.1-3.72-3.15-3.74-5.84c-0.01-2.12,0.86-4.29,3.08-4.42
		C-763.24,720.91-762.61,723.75-762.15,725.87z"/>
	<path class="st17" d="M-32.11,775.3c-3.5-1.2-3.9-4.01-3.48-7.09c0.29-2.09,1.48-3.95,3.82-3.42c3.65,0.83,3.97,3.87,3.55,6.96
		C-28.5,773.88-29.64,775.34-32.11,775.3z"/>
	<path class="st9" d="M-1180.03,831.71c-0.42,2.76-0.65,5.74-4.11,5.7c-2.85-0.03-3.45-2.58-3.52-4.91
		c-0.09-2.72,0.39-5.52,3.9-5.44C-1180.98,827.11-1180.33,829.5-1180.03,831.71z"/>
	<path class="st9" d="M2332.02,911.1c-0.16,2.91-1.11,4.71-2.9,4.35c-3.86-0.76-5.05-3.87-5.03-7.47c0.01-1.83,1.03-3.61,2.85-3.32
		C2330.98,905.33,2331.47,908.85,2332.02,911.1z"/>
	<path class="st8" d="M2180.16,953.54c-3.86-0.61-4.78-3.78-5.39-6.97c-0.32-1.66,0.48-3.25,2.24-3.84c2.45-0.81,5.6,2.5,5.98,6.27
		C2183.21,951.11,2182.63,952.84,2180.16,953.54z"/>
	<path class="st12" d="M1884.15,1024.65c-0.14,2.11-0.45,4.47-3.09,4c-3.41-0.61-4.45-3.51-4.55-6.66
		c-0.06-1.79,0.88-3.55,2.67-3.46C1882.86,1018.72,1883.79,1021.6,1884.15,1024.65z"/>
	<path class="st13" d="M-1061.8,580.19c-0.13,2.35-0.39,5.01-3.31,5.06c-3.28,0.06-4.34-2.66-4.13-5.42
		c0.2-2.64,1.26-5.55,4.58-5.13C-1061.87,575.07-1061.9,577.89-1061.8,580.19z"/>
	<path class="st22" d="M1884.2,524.48c-0.13,2.13-0.78,4.2-3.29,3.91c-3.54-0.41-4.62-3.25-4.89-6.38
		c-0.18-2.12,0.46-4.03,2.81-4.46C1881.53,517.05,1884.23,520.66,1884.2,524.48z"/>
	<path class="st15" d="M2719.83-154.57c-0.09,1.84-0.49,3.72-2.47,3.85c-3.74,0.23-5.16-2.42-5.59-5.61
		c-0.28-2.04,0.04-4.52,2.65-4.38C2717.95-160.52,2719.14-157.55,2719.83-154.57z"/>
	<path class="st9" d="M-650.33,475.96c-0.18,2.57-0.82,4.97-3.74,5.04c-2.92,0.06-3.75-2.32-3.94-4.77
		c-0.19-2.49,0.46-5.15,3.13-5.46C-651.48,470.36-650.7,473.27-650.33,475.96z"/>
	<path class="st13" d="M2297.82-44.76c-3.19-1.07-4.29-3.94-3.96-7.46c0.16-1.71,1.29-3.23,3.26-2.68c3.72,1.04,5,3.97,4.63,7.52
		C2301.58-45.71,2300.4-44.45,2297.82-44.76z"/>
	<path class="st11" d="M2455.96,372.19c3.66,0.92,4.49,3.92,4.24,7.47c-0.13,1.77-1.09,3.48-3.05,2.9
		c-3.59-1.07-5.17-3.95-4.95-7.58C2452.31,373.2,2453.61,372.11,2455.96,372.19z"/>
	<path class="st15" d="M1130.18,25.67c-0.23,2.02-0.78,4.09-3.32,3.83c-3.06-0.32-4.4-2.58-4.44-5.48c-0.04-2.51,0.8-4.79,3.85-4.28
		C1129.37,20.24,1130.18,22.78,1130.18,25.67z"/>
	<path class="st10" d="M1739.46,86.12c3.66,0.46,5.07,2.96,5.65,5.96c0.43,2.24-0.79,3.96-3.1,3.97c-3.62,0.01-4.92-2.74-5.44-5.76
		C1736.2,88.12,1737.28,86.59,1739.46,86.12z"/>
	<path class="st9" d="M2517.56,119.25c2.86,1.15,4.36,3.88,4.08,7.42c-0.13,1.68-1.5,3.14-3.37,2.7c-3.87-0.92-4.88-3.95-4.53-7.49
		C2513.92,120.21,2514.76,118.75,2517.56,119.25z"/>
	<path class="st9" d="M2238.01,199.51c-0.01,0.12-0.88,1.5-2.8,1.57c-2.79,0.1-5.46-3.81-5.15-7.29c0.17-1.83,1.11-3.19,2.97-3.32
		C2235.76,190.28,2238.38,194.18,2238.01,199.51z"/>
	<path class="st17" d="M1530.03,376.45c-0.19,2.08-0.78,4.22-3.28,3.94c-3.04-0.34-4.21-2.83-4.47-5.61
		c-0.2-2.09,0.41-4.04,2.75-4.5C1527.39,369.82,1529.98,373.16,1530.03,376.45z"/>
	<path class="st20" d="M-928.28,540.22c2.78,0.46,3.82,2.54,3.76,4.91c-0.07,2.72-1.13,5.56-4.45,5.24
		c-2.76-0.27-3.2-2.95-3.06-5.34C-931.88,542.66-931.32,540.44-928.28,540.22z"/>
	<path class="st13" d="M-812.03,301.58c-0.05,2.41-0.52,4.99-3.35,5.2c-2.81,0.21-3.9-2.23-4.12-4.69c-0.23-2.54,0.72-4.9,3.47-5.19
		C-813.02,296.58-812.45,299.17-812.03,301.58z"/>
	<path class="st11" d="M483.64,407.79c0.31-2.17,0.92-4.42,3.4-4.08c3.57,0.48,4.66,3.35,4.35,6.55c-0.21,2.11-1.58,3.81-3.95,3.4
		C484.17,413.1,483.68,410.45,483.64,407.79z"/>
	<path class="st13" d="M993.64,59.96c-0.02,2.37-0.74,4.42-3,4.5c-3.12,0.11-4.5-2.23-4.69-5.07c-0.16-2.33,0.22-4.96,3.3-4.75
		C992.33,54.85,993.14,57.58,993.64,59.96z"/>
	<path class="st8" d="M-380.63,401.09c3.08,0.62,4.15,3.03,4.17,5.71c0.01,2.35-1.08,4.75-3.97,4.52c-2.75-0.21-3.59-2.55-3.6-4.97
		C-384.04,404-383.48,401.81-380.63,401.09z"/>
	<path class="st9" d="M-106.22,331.72c2.93,0.99,3.93,3.28,3.73,6.09c-0.19,2.63-1.8,4.55-4.49,3.88c-3.12-0.78-3.35-3.64-3.01-6.38
		C-109.72,333.17-108.74,331.64-106.22,331.72z"/>
	<path class="st8" d="M-905.16,756.42c2.84,0.75,3.47,2.94,3.36,5.38c-0.1,2.38-0.67,5.19-3.48,5.24c-3.48,0.07-4.08-3.12-3.95-5.78
		C-909.11,758.96-908.09,756.69-905.16,756.42z"/>
	<path class="st13" d="M1264.4-4.76c-3.05-0.44-4.32-2.54-4.54-5.38c-0.15-1.96-0.11-4.45,2.35-4.63c3.64-0.27,5.04,2.5,5.32,5.65
		C1267.71-7.05,1266.77-5.32,1264.4-4.76z"/>
	<path class="st17" d="M3082.68-24.12c3.45,0.46,5.86,3.97,5.27,7.24c-0.34,1.85-1.52,2.98-3.37,2.52
		c-3.66-0.91-5.18-3.65-5.01-7.21C3079.65-23.5,3081.29-24.05,3082.68-24.12z"/>
	<path class="st23" d="M-1040.84,796.9c-0.25,2.7-0.85,5.57-4.17,5.42c-2.79-0.12-3.18-2.83-3.16-5.17c0.01-2.37,0.47-4.8,3.44-4.91
		C-1041.79,792.13-1041.24,794.54-1040.84,796.9z"/>
	<path class="st9" d="M-169.78,806.47c-0.43,2.48-1.06,5.06-4.13,4.52c-2.6-0.46-3.56-2.93-3.57-5.35
		c-0.01-2.42,0.81-5.04,3.72-4.94C-170.31,800.81-170.01,803.83-169.78,806.47z"/>
	<path class="st9" d="M-347.53,625.56c-2.86-0.07-3.9-2.05-4.25-4.44c-0.34-2.34-0.19-5.05,2.49-5.7c3.45-0.83,4.41,2.05,4.86,4.68
		C-344,622.59-344.99,624.57-347.53,625.56z"/>
	<path class="st21" d="M-1085.41,375.41c-3.23-0.83-4.24-2.79-3.96-5.29c0.31-2.71,1.3-5.53,4.72-4.9c2.71,0.5,2.97,3.19,2.85,5.57
		C-1081.92,373.37-1083.28,374.95-1085.41,375.41z"/>
	<path class="st11" d="M-513.8,441.57c-0.19,2.49-0.58,4.93-3.71,4.67c-2.74-0.22-3.71-2.46-3.84-4.86
		c-0.14-2.45,0.76-4.8,3.47-5.03C-514.22,436.05-514.03,439.01-513.8,441.57z"/>
	<path class="st10" d="M1048.3,268.37c-0.32,2.57-0.66,4.87-3.4,4.43c-3.04-0.49-4.39-2.86-4.46-5.8c-0.05-2.11,0.72-4.39,3.07-4.43
		C1047.57,262.51,1047.9,265.83,1048.3,268.37z"/>
	<path class="st24" d="M1581.4,1094.4c2.92,0.56,4.1,2.73,4.33,5.52c0.17,2.08-0.5,4.45-2.8,4.25c-3.52-0.3-4.48-3.31-4.53-6.43
		C1578.38,1095.94,1579.38,1094.73,1581.4,1094.4z"/>
	<path class="st11" d="M817.13,549.22c2.95,0.57,4.39,2.55,4.71,5.41c0.27,2.4,0.02,4.98-2.96,5.21c-3.29,0.26-4.37-2.35-4.7-5.13
		C813.89,552.3,814.35,550.13,817.13,549.22z"/>
	<path class="st21" d="M-946.68,336.24c-0.19,2.54-0.84,4.86-3.75,4.81c-2.84-0.04-3.66-2.31-3.7-4.76c-0.05-2.41,0.65-5,3.24-5.29
		C-947.35,330.62-947.2,333.83-946.68,336.24z"/>
	<path class="st17" d="M-70.58,544.71c3.15,0.27,4.21,2.26,4.48,4.66c0.26,2.36-0.11,5.19-2.74,5.61c-3.21,0.51-4.39-2.32-4.81-5.01
		C-74.04,547.4-72.7,545.66-70.58,544.71z"/>
	<path class="st13" d="M626.6,368.28c3.43,0.67,3.7,3.36,3.64,6.1c-0.05,2.08-0.68,4.46-3.15,4.2c-3.66-0.38-4.74-3.27-4.43-6.59
		C622.86,369.78,624.11,368.33,626.6,368.28z"/>
	<path class="st15" d="M69.46,509.16c3.16,0.57,3.84,3.14,4.1,5.81c0.21,2.15-0.78,4.31-2.93,4.53c-3.35,0.35-4.46-2.28-4.68-5.11
		C65.76,511.92,66.48,509.81,69.46,509.16z"/>
	<path class="st25" d="M2033.63,986.89c-0.25,2.15-0.78,4.49-3.32,3.98c-3.48-0.71-4.17-3.83-4.28-6.93
		c-0.07-1.8,0.76-3.62,2.66-3.43C2032.33,980.89,2033.1,983.94,2033.63,986.89z"/>
	<path class="st11" d="M2992.76-231.21c2.68,0.11,5.63,4.07,5.28,7.27c-0.2,1.8-1.23,3.25-3.2,2.73c-3.25-0.86-4.63-3.44-4.83-6.62
		C2989.88-229.67,2990.83-230.91,2992.76-231.21z"/>
	<path class="st12" d="M2221.56-257.44c2.93,0.66,4.33,2.7,4.31,5.71c-0.01,1.87-1.02,3.44-2.96,3.18
		c-3.07-0.41-4.53-2.64-4.53-5.65C2218.38-256.07,2219.45-257.25,2221.56-257.44z"/>
	<path class="st8" d="M-138.02,131.08c-0.41,2.64-0.52,5.32-3.63,5.09c-2.64-0.19-3.67-2.49-3.84-4.84
		c-0.19-2.51,0.9-4.63,3.68-4.63C-138.9,126.7-138.63,129.32-138.02,131.08z"/>
	<path class="st22" d="M2941.64,11.52c2.69,0.32,5.09,4.04,4.42,7.49c-0.26,1.37-0.99,2.45-2.56,2.52c-2.8,0.14-5.7-3.65-5.41-7.11
		C2938.25,12.54,2939.28,11.46,2941.64,11.52z"/>
	<path class="st10" d="M-487.6,650.66c2.83,0.54,3.49,2.7,3.61,5.04c0.11,2.38-0.52,5.14-3.1,5.32c-3.2,0.23-4.3-2.64-4.24-5.38
		C-491.29,653.36-490.36,651.19-487.6,650.66z"/>
	<path class="st11" d="M-407.83,199.45c-0.11,2.34-0.3,4.9-3.42,4.9c-2.78,0-3.93-2.2-4.12-4.67c-0.19-2.52,0.71-4.8,3.57-4.93
		C-408.88,194.61-408.11,196.93-407.83,199.45z"/>
	<path class="st16" d="M582.16,163.57c-0.01,2.33-0.3,4.63-2.78,4.77c-3.25,0.18-4.58-2.24-4.8-5.16c-0.16-2.17,0.77-4.27,2.99-4.51
		C581.03,158.3,581.94,160.9,582.16,163.57z"/>
	<path class="st15" d="M-680.45,272.67c-2.65,0.06-3.45-1.71-3.67-3.78c-0.28-2.65-0.52-5.67,3.08-6.13
		c2.25-0.29,3.49,1.73,3.96,3.71C-676.38,269.42-677.64,271.53-680.45,272.67z"/>
	<path class="st21" d="M1675.72-109.28c-3.13-0.14-4.56-2.17-5.18-4.85c-0.49-2.11,0.23-4.19,2.49-4.47
		c3.12-0.38,4.64,1.8,5.01,4.67C1678.29-111.96,1678.19-109.98,1675.72-109.28z"/>
	<path class="st18" d="M2858.71-189.41c-0.49,2.18-1.47,3.6-3.43,2.99c-3.16-0.99-4.71-3.54-4.64-6.74
		c0.04-1.81,1.51-2.98,3.42-2.57C2857.63-194.97,2858.25-192.04,2858.71-189.41z"/>
	<path class="st15" d="M266,29.65c-0.31,2.05-0.84,4.13-3.5,3.68c-2.76-0.47-3.5-2.82-3.46-5.21c0.03-2.16,1.15-3.93,3.62-3.63
		C265.61,24.84,265.99,27.2,266,29.65z"/>
	<path class="st22" d="M-565.64,1143.69c-0.07,2.22-0.06,5.08-2.94,5.17c-3.41,0.11-3.69-3-3.74-5.61
		c-0.05-2.34,0.36-4.98,3.37-4.78C-566.16,1138.66-565.82,1141.28-565.64,1143.69z"/>
	<path class="st11" d="M-3.14,97.75c-0.26,2.09-1.12,3.87-3.5,3.79c-3-0.11-3.46-2.49-3.45-4.85c0.02-2,0.47-4.17,3.1-3.85
		C-4.37,93.16-3.42,95.29-3.14,97.75z"/>
	<path class="st16" d="M-623.57,691.2c-0.25,2.42-0.37,4.9-2.87,5.02c-3.8,0.18-3.81-3-3.85-5.65c-0.03-2.14,0.9-4.3,3.29-4.18
		C-623.98,686.54-623.76,689.2-623.57,691.2z"/>
	<path class="st26" d="M535.76-38.92c-0.23,2.09-0.9,4.06-3.39,3.81c-2.72-0.27-3.65-2.51-3.79-4.9c-0.13-2.2,0.92-3.92,3.35-3.73
		C534.71-43.53,535.49-41.35,535.76-38.92z"/>
	<path class="st9" d="M-273.05,165.49c-0.18,2.07-0.65,4.14-3.05,4.33c-2.98,0.22-3.86-2.05-3.92-4.48
		c-0.04-2.05,0.84-4.17,3.03-4.39C-273.99,160.64-273.51,163.22-273.05,165.49z"/>
	<path class="st26" d="M2084.47-222.81c3.38,0.74,4.49,3.33,4.66,6.38c0.1,1.79-1.07,3.25-2.98,2.88c-2.98-0.58-4-3.03-4.23-5.74
		C2081.78-220.99,2082.38-222.47,2084.47-222.81z"/>
	<path class="st21" d="M1815.37-147.31c-0.39,1.91-1.26,3.36-3.29,3.02c-3.22-0.54-4.21-2.97-4.1-5.87
		c0.07-1.78,0.94-3.39,3.05-2.93C1814.06-152.43,1815.18-150.08,1815.37-147.31z"/>
	<path class="st11" d="M1400.06-40.35c-2.24-0.64-3.4-2.88-3.36-5.62c0.03-2.16,1.37-3.86,3.73-3.2c2.89,0.81,3.86,3.32,3.56,6.09
		C1403.81-41.44,1402.86-40.03,1400.06-40.35z"/>
	<path class="st12" d="M131.47,63.71c-0.43,2.07-1.18,4.05-3.69,3.68c-2.77-0.41-3.57-2.65-3.39-5.13c0.16-2.12,1.21-3.97,3.63-3.66
		C130.82,58.97,131.43,61.25,131.47,63.71z"/>
	<path class="st22" d="M-209.75,580.46c2.7-0.12,3.6,1.58,3.85,3.66c0.27,2.27,0.65,4.92-2.08,5.95c-2.4,0.91-3.68-0.83-4.08-2.97
		C-212.54,584.49-212.85,581.79-209.75,580.46z"/>
	<path class="st21" d="M1951.98-181.98c-0.38,1.9-1.17,3.47-3.17,2.99c-2.94-0.71-4.1-3.13-4.11-5.9c0-1.78,1.21-3.14,3.18-2.74
		C1950.96-187.02,1951.84-184.63,1951.98-181.98z"/>
	<path class="st11" d="M-791.01,515.61c-2.54-0.4-3.29-2.19-3.34-4.29c-0.05-2.28-0.27-5.11,2.7-5.6c3.14-0.51,3.68,2.12,3.8,4.52
		C-787.72,512.68-788.34,514.83-791.01,515.61z"/>
	<path class="st20" d="M1536.4-83.7c2.97-0.07,4.08,1.95,4.7,4.28c0.58,2.18-0.15,4.25-2.46,4.63c-2.87,0.47-4.02-1.81-4.58-4.19
		C1533.55-81.12,1534.03-82.93,1536.4-83.7z"/>
	<path class="st27" d="M-239.83,371.74c-0.02,2.38-0.62,4.65-2.86,4.89c-2.95,0.31-3.85-2.23-4-4.67c-0.15-2.36,0.1-5.15,3.24-5.08
		C-240.58,366.93-240.11,369.6-239.83,371.74z"/>
	<path class="st28" d="M524.06,241.44c-0.04,0.89-0.08,1.77-0.12,2.66c-6.63-1.69-13.27-3.37-22-5.59
		C511.16,237.05,517.78,238.06,524.06,241.44z"/>
	<path class="st20" d="M-99.03,1275.2c-2.89-1.16-3.21-3.68-2.93-6.44c0.18-1.76,0.96-3.25,2.9-3.39c2.41-0.17,4.36,3.7,3.65,7.01
		C-95.81,1274.16-97.43,1275.5-99.03,1275.2z"/>
	<path class="st18" d="M305.26,237.68c-3.17-0.32-4.05-2.54-4.05-4.79c0-2.17,0.51-4.95,3.66-4.5c2.67,0.38,3.28,2.82,3.27,5.18
		C308.13,235.63,307.36,237.29,305.26,237.68z"/>
	<path class="st29" d="M-388.54,1345.02c-0.29,2.03-0.77,4.15-3.26,4.26c-2.49,0.11-3.39-1.93-3.54-3.98
		c-0.17-2.46,0.46-4.95,3.6-4.72C-389.38,1340.75-388.82,1342.94-388.54,1345.02z"/>
	<path class="st30" d="M-538.8,1377.2c2.61,0.56,3.03,2.5,3.03,4.55c0,1.95,0.11,4.48-2.46,4.68c-3.11,0.24-3.55-2.39-3.58-4.79
		C-541.85,1379.49-540.93,1377.84-538.8,1377.2z"/>
	<path class="st31" d="M2362.96-286.37c-0.07,2.05-0.96,3.51-2.82,3.29c-3.13-0.38-4.04-2.86-4.07-5.6c-0.01-1.27,0.64-2.7,2.21-2.6
		C2361.36-291.08,2362.53-288.9,2362.96-286.37z"/>
	<path class="st32" d="M-972.24,129.24c2.01-0.14,3.08,1.11,3.45,2.71c0.55,2.42-0.19,4.59-2.8,5.3c-1.94,0.53-3.03-1.04-3.36-2.63
		C-975.43,132.26-974.81,130.17-972.24,129.24z"/>
	<path class="st8" d="M-245.47,1312.38c-2.94-1.36-3.1-3.98-2.65-6.71c0.21-1.31,1-2.86,2.5-2.62c3.49,0.57,3.61,3.38,3.35,6.13
		C-242.44,1310.97-243.35,1312.26-245.47,1312.38z"/>
	<path class="st33" d="M2497.21-318.34c-3.05-0.32-4.07-2.6-4.35-5.3c-0.14-1.34,0.58-2.77,2.12-2.68c3.1,0.19,4.41,2.38,4.58,5.21
		C2499.62-319.79,2498.93-318.63,2497.21-318.34z"/>
	<path class="st33" d="M805.11-107.76c-0.15,1.66-0.32,3.58-2.2,3.9c-2.9,0.49-3.93-1.74-4.36-4.05c-0.31-1.67,0.28-3.41,2.17-3.77
		C803.67-112.23,804.58-110.1,805.11-107.76z"/>
	<path class="st34" d="M2769.62-395.61c2.87,0.83,4.26,2.8,3.81,5.87c-0.22,1.52-1.4,2.37-2.84,1.96c-2.6-0.73-3.46-2.97-3.61-5.37
		C2766.9-394.59,2767.98-395.46,2769.62-395.61z"/>
	<path class="st17" d="M1734.63,1062.85c-0.3,1.5-1.05,2.86-2.47,2.72c-3.29-0.34-4.15-2.87-4.15-5.7c0-1.73,0.67-3.56,2.8-3.08
		C1733.93,1057.49,1734.39,1060.25,1734.63,1062.85z"/>
	<path class="st15" d="M400.4-5.18c-0.38,2.02-0.47,4.03-2.54,4.05c-2.95,0.03-3.57-2.33-3.68-4.7c-0.07-1.71,0.53-3.4,2.5-3.55
		C400.04-9.66,399.73-6.8,400.4-5.18z"/>
	<path class="st25" d="M-1101.83,167.42c-0.34,1.83-0.64,3.97-3.33,3.52c-1.82-0.31-2.44-1.98-2.49-3.65
		c-0.06-2.11,0.87-4.12,3.04-4.18C-1102.14,163.04-1101.85,165.29-1101.83,167.42z"/>
	<path class="st25" d="M1435.91,1138.21c-0.28,1.35-0.53,2.86-2.16,2.84c-3.05-0.04-3.52-2.44-3.69-4.76
		c-0.13-1.73,0.53-3.62,2.55-3.28C1435.28,1133.46,1435.86,1135.84,1435.91,1138.21z"/>
	<path class="st24" d="M1284.62,1178.68c-2.92,0.01-3.47-2.03-3.88-3.94c-0.35-1.65-0.21-3.59,1.89-3.91
		c2.66-0.4,3.21,1.81,3.52,3.78C1286.41,1176.22,1286.23,1177.87,1284.62,1178.68z"/>
	<path class="st31" d="M2636.16-355.74c-0.38,1.28-0.61,2.82-2.35,2.56c-2.75-0.42-3.62-2.53-3.61-4.97c0.01-1.32,0.63-2.73,2.3-2.5
		C2635.29-360.27,2636.01-358.15,2636.16-355.74z"/>
	<path class="st30" d="M-682.47,1419.4c-0.19,1.78-1.01,3.6-2.79,3.49c-2.44-0.16-2.79-2.4-2.72-4.49c0.06-1.78,0.78-3.64,2.66-3.48
		C-682.98,1415.12-682.4,1417.24-682.47,1419.4z"/>
	<path class="st35" d="M-976.01,1493.98c-0.47,1.7-1.03,3.39-3.23,2.63c-1.77-0.62-2.25-2.26-2.07-3.99
		c0.18-1.75,1.07-3.42,2.94-3.21C-975.71,1489.72-976.04,1492.09-976.01,1493.98z"/>
	<path class="st24" d="M-706.29,62.77c2.09,0.88,2.36,2.66,1.83,4.7c-0.36,1.37-1.39,2.34-2.79,1.91c-2.31-0.7-2.57-2.63-2-4.66
		C-708.89,63.38-707.98,62.57-706.29,62.77z"/>
	<path class="st13" d="M669.83-73.35c-0.13,1.67-0.43,3.46-2.45,3.54c-2.46,0.1-3.17-1.86-3.27-3.88c-0.08-1.62,0.22-3.5,2.31-3.56
		C668.86-77.33,669.45-75.32,669.83-73.35z"/>
	<path class="st36" d="M3047.31-460.16c-0.11,1.55-0.76,2.85-2.24,2.74c-2.64-0.19-3.91-2.08-4.15-4.55
		c-0.14-1.42,0.7-2.74,2.17-2.61C3045.66-464.35,3046.95-462.53,3047.31-460.16z"/>
	<path class="st31" d="M-838.84,103.41c-2.09-0.13-2.9-1.43-3.01-3.23c-0.11-1.78,0.45-3.48,2.43-3.68c1.98-0.2,2.84,1.33,2.97,3.13
		C-836.33,101.44-837.07,102.81-838.84,103.41z"/>
	<path class="st8" d="M1137.5,1213.72c-0.33,1.43-0.91,2.79-2.4,2.64c-2.91-0.29-3.31-2.63-3.21-4.94c0.06-1.22,0.52-2.76,2.2-2.52
		C1136.87,1209.3,1137.41,1211.46,1137.5,1213.72z"/>
	<path class="st25" d="M936.52-145.17c2.07,0.74,3.05,2.26,2.86,4.41c-0.13,1.46-1.28,2.47-2.58,2.27c-2.29-0.36-2.96-2.2-2.73-4.32
		C934.21-144.2,934.99-145.11,936.52-145.17z"/>
	<path class="st11" d="M1307.89,670.98c-0.19,1.93-0.74,3.79-3.3,3.66c-1.78-0.09-3.05-1.33-3.36-2.97
		c-0.48-2.57,1.49-3.24,3.48-3.52C1306.69,667.86,1307.65,668.97,1307.89,670.98z"/>
	<path class="st37" d="M1073.86-175.88c-0.14,1.33-0.31,2.76-2.01,2.85c-2,0.1-2.87-1.33-3.21-3.03c-0.38-1.93,0.59-3.47,2.48-3.37
		C1072.89-179.34,1073.77-177.72,1073.86-175.88z"/>
	<path class="st38" d="M689.36,1326.84c-0.3,1.42-1.11,2.56-2.59,2.35c-1.96-0.29-2.54-1.96-2.44-3.7c0.08-1.41,0.99-2.63,2.49-2.37
		C688.7,1323.44,689.24,1325.1,689.36,1326.84z"/>
	<path class="st39" d="M-308.79-37.4c1.84,0.52,2.67,1.82,2.53,3.64c-0.11,1.42-1,2.66-2.46,2.47c-1.84-0.24-2.72-1.76-2.58-3.58
		C-311.18-36.28-310.28-37.21-308.79-37.4z"/>
	<path class="st40" d="M-440.86,2.36c-1.89-0.2-2.82-1.36-2.89-3.12c-0.06-1.67,0.4-3.37,2.35-3.54c1.89-0.16,2.79,1.29,2.87,3.02
		C-438.47,0.38-439,1.84-440.86,2.36z"/>
	<path class="st30" d="M-571.35,32.57c-0.25,1.7-0.84,3.27-2.98,3c-1.92-0.24-2.74-1.7-2.62-3.51c0.12-1.76,0.93-3.31,2.98-3.09
		C-572.04,29.17-571.44,30.75-571.35,32.57z"/>
	<path class="st34" d="M984.96,1253.11c-2.03-0.91-2.93-2.51-2.25-4.71c0.43-1.39,1.56-2.11,3.04-1.46c1.75,0.76,2.19,2.3,1.98,4.05
		C987.54,1252.53,986.54,1253.16,984.96,1253.11z"/>
	<path class="st39" d="M1476.08-275.53c-1.95-0.07-2.72-1.39-3.02-3.05c-0.25-1.41,0.26-2.63,1.83-2.74c1.94-0.14,2.81,1.19,3,2.94
		C1478.03-277.04,1477.69-275.86,1476.08-275.53z"/>
	<path class="st41" d="M2715.34,1072.49c2.24,0.49,3.24,2.07,3.2,4.29c-0.02,1.09-0.86,2.02-1.93,1.8c-2.2-0.45-3.37-2.04-3.34-4.28
		C2713.29,1073.21,2714.15,1072.61,2715.34,1072.49z"/>
	<path class="st32" d="M1343.42-243.81c-0.1,1.39-0.52,2.75-2.14,2.61c-1.81-0.15-2.81-1.52-2.89-3.3c-0.06-1.36,0.42-2.74,2.1-2.6
		C1342.33-246.94,1343.18-245.56,1343.42-243.81z"/>
	<path class="st42" d="M539.72,1363.71c0.03,1.37-0.31,2.62-1.82,2.9c-1.47,0.27-2.48-0.63-2.73-2c-0.33-1.77,0.36-3.32,2.27-3.47
		C538.88,1361.03,539.52,1362.34,539.72,1363.71z"/>
	<path class="st20" d="M1208.7-209.99c-0.28,1.91-0.91,3.14-2.41,2.94c-2.36-0.32-2.98-2.18-2.84-4.26c0.07-0.97,0.69-1.94,1.8-1.95
		C1207.76-213.31,1208.19-211.34,1208.7-209.99z"/>
	<path class="st16" d="M1383.64,415.08c-2.87-0.62-3.23-2.68-3.49-4.51c-0.23-1.62,0.23-3.51,2.3-3.53
		c1.49-0.02,1.75,1.59,1.86,2.86C1384.45,411.46,1384.98,413.08,1383.64,415.08z"/>
	<path class="st29" d="M1659.56,823.4c-1.64-0.01-2.96-0.36-3.02-2c-0.07-1.92,1.07-3,3.01-2.94c1.39,0.04,2.72,0.69,2.89,2.13
		C1662.71,822.74,1660.97,823.12,1659.56,823.4z"/>
	<path class="st31" d="M2909.93-425.87c-0.3,1.82-0.8,3.12-2.43,2.82c-1.72-0.32-2.75-1.62-3.01-3.37c-0.2-1.39,0.17-2.72,1.81-2.79
		C2908.83-429.33,2909.25-427.23,2909.93-425.87z"/>
	<path class="st26" d="M3019.39,995.33c2.37,1.01,3.32,2.98,3.24,5.47c-0.04,1.07-0.94,2-1.97,1.72c-2.65-0.73-3.36-2.93-3.31-5.38
		C3017.37,996.07,3018.16,995.4,3019.39,995.33z"/>
	<path class="st43" d="M-41.05-101.63c-0.27,1.38-1.02,2.59-2.47,2.46c-2.06-0.19-2.47-1.86-2.21-3.61c0.23-1.51,1.3-2.28,2.78-1.86
		C-41.56-104.24-40.95-103.1-41.05-101.63z"/>
	<path class="st36" d="M1610.18-315.17c1.77,0.3,2.76,1.43,2.71,3.23c-0.04,1.42-0.92,2.39-2.41,2.2c-1.45-0.19-2.09-1.39-2.23-2.73
		C1608.1-313.82,1608.44-315,1610.18-315.17z"/>
	<path class="st21" d="M-1123.05,1530.45c-0.25,1.36-0.85,2.63-2.35,2.59c-1.63-0.04-2.06-1.42-1.95-2.82
		c0.1-1.39,0.83-2.66,2.3-2.62C-1123.46,1527.65-1123.08,1529.04-1123.05,1530.45z"/>
	<path class="st44" d="M89.43-132.93c-1.49-0.25-2.34-1.2-2.49-2.61c-0.16-1.48,0.49-2.73,2.11-2.73c1.5,0,2.33,1.15,2.46,2.57
		C91.65-134.25,91.1-133.12,89.43-132.93z"/>
	<path class="st45" d="M1745.42-344.86c-1.47-0.29-2.34-1.19-2.34-2.67c0-1.12,0.75-1.91,1.9-1.82c1.5,0.13,2.35,1.14,2.32,2.62
		C1747.28-345.64,1746.64-344.88,1745.42-344.86z"/>
	<path class="st46" d="M2016.77-414.59c-0.02,1.12-0.63,1.85-1.69,1.87c-1.45,0.03-2.27-0.91-2.38-2.3
		c-0.08-1.09,0.6-1.86,1.66-1.88C2015.81-416.93,2016.54-415.96,2016.77-414.59z"/>
	<path class="st47" d="M2151.26-448.73c-0.24,1.02-0.92,1.72-1.92,1.56c-1.36-0.21-2.14-1.2-2-2.61c0.1-1.04,0.92-1.68,1.91-1.54
		C2150.62-451.12,2151.32-450.16,2151.26-448.73z"/>
	<path class="st34" d="M-174.1-68.48c0.07,1.36-0.25,2.64-1.8,2.74c-1.62,0.1-2.15-1.23-2-2.55c0.1-0.82,0.68-2.06,1.3-2.24
		C-175.12-70.97-174.4-69.83-174.1-68.48z"/>
	<path class="st48" d="M833.99,1287.71c0.31-1.15,0.54-2.63,2.29-2.18c1.37,0.35,1.91,1.61,1.73,2.95
		c-0.16,1.23-0.47,2.73-2.25,2.25C834.41,1290.37,833.94,1289.15,833.99,1287.71z"/>
	<path class="st49" d="M238.93,1441.28c-1.51-0.25-2.32-1.14-2.04-2.65c0.2-1.06,1.11-1.55,2.15-1.3c1.02,0.25,1.68,1.04,1.73,2.09
		C240.82,1440.58,240.05,1441.15,238.93,1441.28z"/>
	<path class="st8" d="M-832.31,1453.12c1.77-0.17,2.2,1.14,2.43,2.38c0.24,1.31-0.04,2.81-1.33,3.35c-1.36,0.57-2.46-0.23-2.75-1.75
		C-834.29,1455.44-834.11,1453.93-832.31,1453.12z"/>
	<path class="st37" d="M2870,1038.07c-0.11,1.04-0.51,2.04-1.66,1.91c-1.55-0.17-2.16-1.43-2.16-2.86c0-1.03,0.54-2.02,1.68-1.91
		C2869.45,1035.38,2869.92,1036.65,2870,1038.07z"/>
	<path class="st50" d="M487.3-238.38c0.39-0.04,1.2,0.42,1.47,1.36c0.41,1.46-0.32,2.41-1.81,2.47c-1.05,0.04-1.75-0.72-1.79-1.76
		C485.13-237.27,485.61-238.06,487.3-238.38z"/>
	<path class="st51" d="M389.69,1404.18c0.1-1.38-0.22-0.33-1.32-0.38c-1.59-0.07-2.03-1.36-1.91-2.72c0.1-1.1,0.86-1.82,1.98-1.5
		C389.43,1399.86,389.85,1400.77,389.69,1404.18z"/>
	<path class="st52" d="M2565.7,1114.52c-0.1,1.03-0.51,2.03-1.63,1.92c-1.61-0.17-1.98-1.52-1.79-2.89
		c0.07-0.55,0.64-1.44,1.04-1.48C2564.97,1111.91,2565.51,1113.11,2565.7,1114.52z"/>
	<path class="st53" d="M1881.3-380.03c-0.69,0.9-1.57,1.05-2.36,0.27c-0.73-0.72-0.79-1.75-0.04-2.48c0.33-0.33,1.23-0.46,1.64-0.24
		C1881.49-381.98,1881.75-381.06,1881.3-380.03z"/>
	<path class="st54" d="M2413.5,1152.69c0.02,0.98-0.33,1.83-1.39,1.84c-1.04,0-1.58-0.85-1.47-1.81c0.05-0.51,0.51-1.28,0.94-1.4
		C2412.62,1151.01,2413.25,1151.69,2413.5,1152.69z"/>
	<path class="st55" d="M222.21-170.69c1,0.38,1.44,1.16,1.19,2.14c-0.25,1.01-1.07,1.54-2.05,1.04c-0.45-0.23-0.88-0.99-0.89-1.51
		C220.45-170.05,221.05-170.74,222.21-170.69z"/>
	<path class="st56" d="M2261.45,1191.03c-0.31,0.5-0.53,1.32-0.96,1.45c-1.12,0.35-1.81-0.4-1.82-1.46c0-0.5,0.48-1.31,0.91-1.45
		C2260.71,1189.22,2261.28,1189.95,2261.45,1191.03z"/>
	<path class="st52" d="M354.16-204.49c1.03,0.24,1.49,0.97,1.35,1.93c-0.15,1.02-0.88,1.66-1.92,1.26
		c-0.44-0.17-0.88-0.91-0.93-1.43C352.56-203.7,353.08-204.4,354.16-204.49z"/>
	<path class="st57" d="M437.95,320.03c-0.81,0.81-1.63,1.62-2.44,2.44c-1.92-2.23-1.76-4.74-1.39-7.52
		C437.27,315.6,437.67,317.78,437.95,320.03z"/>
	<path class="st56" d="M-1122.42-29.15c-0.4,0.39-0.84,1.14-1.19,1.11c-1.1-0.12-1.6-1.01-1.21-2.01c0.15-0.38,1.15-0.8,1.48-0.64
		C-1122.89-30.48-1122.72-29.7-1122.42-29.15z"/>
	<path class="st58" d="M1375.77,257.79c0.84,0.87,1.69,1.74,2.53,2.61c-1.28,1.8-3.62,3.1-4.92,1.62
		C1371.71,260.11,1374.05,258.74,1375.77,257.79z"/>
	<path class="st59" d="M2285.52-483.19c-0.37,0.43-0.74,1.2-1.1,1.19c-0.47-0.01-1.21-0.56-1.33-1.01c-0.3-1.07,0.24-1.88,1.43-1.62
		C2284.94-484.53,2285.19-483.69,2285.52-483.19z"/>
	<path class="st50" d="M620.81-269.87c-0.17,0.23-0.31,0.62-0.52,0.66c-0.73,0.15-1.16-0.22-1.11-0.95
		c0.02-0.24,0.28-0.63,0.49-0.67C620.4-270.97,620.79-270.6,620.81-269.87z"/>
</g>
</svg>
