<?xml version="1.0" encoding="utf-8"?>
<!-- Generator: Adobe Illustrator 26.5.0, SVG Export Plug-In . SVG Version: 6.00 Build 0)  -->
<svg version="1.1" id="Capa_1" xmlns="http://www.w3.org/2000/svg" xmlns:xlink="http://www.w3.org/1999/xlink" x="0px" y="0px"
	 viewBox="0 0 360 160" style="enable-background:new 0 0 360 160;" xml:space="preserve">
<style type="text/css">
	.st0{fill:#FFFFFF;stroke:#FFFFFF;stroke-miterlimit:10;}
</style>
<g id="SVGRepo_iconCarrier">
	<g>
		<path class="st0" d="M143.16,66.19c0,2.08,0.22,3.76,0.62,5c0.45,1.24,1.01,2.58,1.8,4.04c0.28,0.45,0.39,0.9,0.39,1.29
			c0,0.56-0.34,1.12-1.07,1.68l-3.54,2.36c-0.51,0.34-1.01,0.51-1.46,0.51c-0.56,0-1.12-0.28-1.68-0.79
			c-0.79-0.84-1.46-1.74-2.02-2.64c-0.56-0.95-1.12-2.02-1.74-3.31c-4.38,5.17-9.88,7.75-16.51,7.75c-4.72,0-8.48-1.35-11.23-4.04
			s-4.16-6.29-4.16-10.78c0-4.77,1.68-8.65,5.11-11.57s7.97-4.38,13.76-4.38c1.91,0,3.87,0.17,5.95,0.45
			c2.08,0.28,4.21,0.73,6.46,1.24v-4.1c0-4.27-0.9-7.24-2.64-8.98c-1.8-1.74-4.83-2.58-9.15-2.58c-1.97,0-3.99,0.22-6.06,0.73
			c-2.08,0.51-4.1,1.12-6.06,1.91c-0.9,0.39-1.57,0.62-1.97,0.73c-0.39,0.11-0.67,0.17-0.9,0.17c-0.79,0-1.18-0.56-1.18-1.74v-2.75
			c0-0.9,0.11-1.57,0.39-1.97c0.28-0.39,0.79-0.79,1.57-1.18c1.97-1.01,4.32-1.85,7.07-2.53c2.75-0.73,5.67-1.07,8.76-1.07
			c6.68,0,11.57,1.52,14.71,4.55c3.09,3.03,4.66,7.64,4.66,13.81v18.19H143.16z M120.37,74.72c1.85,0,3.76-0.34,5.78-1.01
			c2.02-0.67,3.82-1.91,5.33-3.59c0.9-1.07,1.57-2.25,1.91-3.59c0.34-1.35,0.56-2.98,0.56-4.88v-2.36
			c-1.63-0.39-3.37-0.73-5.17-0.95c-1.8-0.22-3.54-0.34-5.28-0.34c-3.76,0-6.51,0.73-8.37,2.25c-1.85,1.52-2.75,3.65-2.75,6.46
			c0,2.64,0.67,4.6,2.08,5.95C115.82,74.05,117.78,74.72,120.37,74.72z M165.46,80.79c-1.01,0-1.68-0.17-2.13-0.56
			c-0.45-0.34-0.84-1.12-1.18-2.19l-13.2-43.4c-0.34-1.12-0.51-1.85-0.51-2.25c0-0.9,0.45-1.4,1.35-1.4h5.5
			c1.07,0,1.8,0.17,2.19,0.56c0.45,0.34,0.79,1.12,1.12,2.19l9.43,37.17l8.76-37.17c0.28-1.12,0.62-1.85,1.07-2.19
			c0.45-0.34,1.24-0.56,2.25-0.56h4.49c1.07,0,1.8,0.17,2.25,0.56c0.45,0.34,0.84,1.12,1.07,2.19l8.87,37.62l9.71-37.62
			c0.34-1.12,0.73-1.85,1.12-2.19c0.45-0.34,1.18-0.56,2.19-0.56h5.22c0.9,0,1.4,0.45,1.4,1.4c0,0.28-0.06,0.56-0.11,0.9
			c-0.06,0.34-0.17,0.79-0.39,1.4l-13.53,43.4c-0.34,1.12-0.73,1.85-1.18,2.19c-0.45,0.34-1.18,0.56-2.13,0.56h-4.83
			c-1.07,0-1.8-0.17-2.25-0.56c-0.45-0.39-0.84-1.12-1.07-2.25l-8.7-36.22l-8.65,36.16c-0.28,1.12-0.62,1.85-1.07,2.25
			c-0.45,0.39-1.24,0.56-2.25,0.56H165.46z M237.61,82.3c-2.92,0-5.84-0.34-8.65-1.01c-2.81-0.67-5-1.4-6.46-2.25
			c-0.9-0.51-1.52-1.07-1.74-1.57c-0.22-0.51-0.34-1.07-0.34-1.57v-2.86c0-1.18,0.45-1.74,1.29-1.74c0.34,0,0.67,0.06,1.01,0.17
			s0.84,0.34,1.4,0.56c1.91,0.84,3.99,1.52,6.18,1.97c2.25,0.45,4.44,0.67,6.68,0.67c3.54,0,6.29-0.62,8.2-1.85
			c1.91-1.24,2.92-3.03,2.92-5.33c0-1.57-0.51-2.86-1.52-3.93c-1.01-1.07-2.92-2.02-5.67-2.92l-8.14-2.53
			c-4.1-1.29-7.13-3.2-8.98-5.73c-1.85-2.47-2.81-5.22-2.81-8.14c0-2.36,0.51-4.44,1.52-6.23c1.01-1.8,2.36-3.37,4.04-4.6
			c1.68-1.29,3.59-2.25,5.84-2.92c2.25-0.67,4.6-0.95,7.07-0.95c1.24,0,2.53,0.06,3.76,0.22c1.29,0.17,2.47,0.39,3.65,0.62
			c1.12,0.28,2.19,0.56,3.2,0.9c1.01,0.34,1.8,0.67,2.36,1.01c0.79,0.45,1.35,0.9,1.68,1.4c0.34,0.45,0.51,1.07,0.51,1.85v2.64
			c0,1.18-0.45,1.8-1.29,1.8c-0.45,0-1.18-0.22-2.13-0.67c-3.2-1.46-6.79-2.19-10.78-2.19c-3.2,0-5.73,0.51-7.47,1.57
			s-2.64,2.7-2.64,5c0,1.57,0.56,2.92,1.68,3.99c1.12,1.07,3.2,2.13,6.18,3.09l7.97,2.53c4.04,1.29,6.96,3.09,8.7,5.39
			c1.74,2.3,2.58,4.94,2.58,7.86c0,2.41-0.51,4.6-1.46,6.51c-1.01,1.91-2.36,3.59-4.1,4.94c-1.74,1.4-3.82,2.41-6.23,3.14
			C243.11,81.91,240.47,82.3,237.61,82.3z"/>
		<path class="st0" d="M248.22,109.59c-18.47,13.64-45.31,20.89-68.39,20.89c-32.34,0-61.48-11.96-83.49-31.84
			c-1.74-1.57-0.17-3.71,1.91-2.47c23.81,13.81,53.17,22.18,83.55,22.18c20.49,0,43.01-4.27,63.73-13.03
			C248.61,103.92,251.25,107.34,248.22,109.59z M255.91,100.83c-2.36-3.03-15.61-1.46-21.62-0.73c-1.8,0.22-2.08-1.35-0.45-2.53
			c10.56-7.41,27.91-5.28,29.93-2.81c2.02,2.53-0.56,19.88-10.44,28.19c-1.52,1.29-2.98,0.62-2.3-1.07
			C253.27,116.33,258.27,103.81,255.91,100.83z"/>
	</g>
</g>
</svg>
