<?xml version="1.0" encoding="utf-8"?>
<!-- Generator: Adobe Illustrator 26.5.0, SVG Export Plug-In . SVG Version: 6.00 Build 0)  -->
<svg version="1.1" id="Capa_1" xmlns="http://www.w3.org/2000/svg" xmlns:xlink="http://www.w3.org/1999/xlink" x="0px" y="0px"
	 viewBox="0 0 360 160" style="enable-background:new 0 0 360 160;" xml:space="preserve">
<style type="text/css">
	.st0{fill:#FFFFFF;}
</style>
<g id="SVGRepo_iconCarrier_00000130644126226124227820000013939419306587934625_">
	<g>
		<path class="st0" d="M93.69,113.86c12.58-2.22,22.97-4.06,23.08-4.09l0.22-0.05l-11.87-14.12c-6.53-7.77-11.87-14.15-11.87-14.19
			c0-0.07,12.26-33.83,12.33-33.95c0.02-0.04,8.37,14.37,20.23,34.92c11.1,19.24,20.26,35.11,20.34,35.26l0.15,0.27l-37.74,0
			l-37.74,0L93.69,113.86L93.69,113.86z M238.41,110.45c-5.74-0.37-9.09-3.64-9.97-9.76c-0.24-1.63-0.24-1.67-0.26-12.24
			l-0.02-10.23h2.54h2.54l0.02,9.9c0.02,8.92,0.03,9.97,0.11,10.59c0.35,2.55,1.04,4.26,2.21,5.49c0.94,0.98,2.04,1.56,3.56,1.87
			c0.72,0.14,2.76,0.14,3.41,0c1.54-0.34,2.78-1.01,3.87-2.1c1.24-1.24,2.16-3.01,2.61-5l0.15-0.67l0.02-9.98l0.02-9.98h2.6h2.6
			v15.69v15.69h-2.57h-2.57v-2.49c0-1.69-0.02-2.48-0.06-2.47c-0.03,0.01-0.16,0.21-0.29,0.45c-0.89,1.61-2.36,3.09-3.98,3.98
			C243,110.24,241.06,110.62,238.41,110.45L238.41,110.45z M296.71,110.42c-2.03-0.15-4.16-0.85-5.91-1.93
			c-3.68-2.28-5.85-6.03-6.49-11.19c-0.22-1.79-0.25-4.18-0.06-5.7c0.41-3.39,1.74-6.72,3.64-9.1c0.49-0.61,1.59-1.71,2.2-2.2
			c1.65-1.31,3.57-2.23,5.61-2.68c1.19-0.26,3.29-0.38,4.55-0.27c3.18,0.29,6.09,1.79,8.07,4.14c2.01,2.39,3.12,5.73,3.26,9.85
			c0.02,0.64,0.03,1.78,0.01,2.51l-0.03,1.34l-11.13,0.01l-11.13,0.01v0.5c0,1.51,0.37,3.23,1,4.7c0.55,1.26,1.49,2.64,2.26,3.31
			c1.58,1.37,3.52,2.19,5.64,2.38c0.79,0.07,2.79,0,3.69-0.14c2.56-0.39,4.99-1.4,6.95-2.87c0.23-0.17,0.45-0.33,0.49-0.36
			c0.06-0.04,0.07,0.42,0.07,2.32l0,2.36l-0.53,0.33c-2.22,1.37-4.76,2.25-7.46,2.58C300.62,110.45,297.67,110.49,296.71,110.42
			L296.71,110.42z M306.4,90.5c0-2.53-1.07-5.34-2.58-6.79c-1.08-1.03-2.38-1.67-3.93-1.91c-0.73-0.11-2.28-0.07-3.05,0.09
			c-1.63,0.33-2.98,1.05-4.16,2.21c-1.24,1.23-2.17,2.71-2.75,4.41c-0.21,0.61-0.46,1.61-0.53,2.17l-0.04,0.27h8.52h8.52V90.5z
			 M155.46,109.63c0.01-0.04,3.79-9.96,8.4-22.06l8.37-21.99h2.69h2.69l0.22,0.57c0.68,1.75,16.76,43.5,16.76,43.52
			c0,0.01-1.29,0.03-2.86,0.03l-2.86,0l-2.32-6.17l-2.32-6.17l-9.33,0l-9.33,0l-0.08,0.21c-0.04,0.12-1.03,2.89-2.2,6.17l-2.12,5.96
			l-2.87,0C156.04,109.7,155.45,109.69,155.46,109.63L155.46,109.63z M182.54,92.65c0-0.01-1.56-4.24-3.47-9.4
			c-3.57-9.65-3.77-10.23-4.05-11.78c-0.13-0.73-0.2-0.75-0.28-0.08c-0.06,0.47-0.3,1.53-0.49,2.12c-0.09,0.29-1.7,4.7-3.57,9.79
			c-1.87,5.1-3.4,9.29-3.4,9.31s3.43,0.05,7.62,0.05S182.54,92.66,182.54,92.65L182.54,92.65z M196.33,108.9v-0.8l9.3-12.78
			l9.3-12.78l-8.42-0.03l-8.42-0.03l-0.01-2.14l-0.01-2.14h12.17h12.17v0.72v0.72l-9.3,12.85c-5.11,7.07-9.3,12.86-9.3,12.88
			c0,0.01,4.13,0.03,9.19,0.03h9.19v2.15v2.15h-12.93h-12.93V108.9z M264.55,109.67c-0.02-0.02-0.04-7.11-0.04-15.75V78.21h2.54
			h2.54v3.24c0,1.78,0.02,3.24,0.05,3.24s0.15-0.29,0.27-0.65c0.57-1.63,1.56-3.16,2.84-4.37c1.15-1.09,2.46-1.75,4.01-2
			c0.44-0.07,0.8-0.08,1.68-0.06c1.09,0.03,1.67,0.11,2.33,0.33l0.21,0.07v2.64v2.64l-0.6-0.3c-1.06-0.53-2.11-0.74-3.36-0.68
			c-0.82,0.04-1.36,0.15-2.01,0.39c-1.35,0.51-2.44,1.4-3.2,2.61c-1.1,1.76-1.89,4.03-2.13,6.11c-0.04,0.37-0.07,3.42-0.08,9.42
			l-0.01,8.87h-2.5C265.71,109.7,264.57,109.69,264.55,109.67L264.55,109.67z M48.4,109.56c0-0.02,5.6-9.73,12.43-21.58l12.43-21.55
			l14.49-12.16c7.97-6.69,14.51-12.17,14.54-12.18c0.03-0.01-0.08,0.25-0.23,0.59s-7.23,15.52-15.73,33.75l-15.45,33.14l-11.24,0.01
			C53.46,109.59,48.4,109.58,48.4,109.56L48.4,109.56z"/>
	</g>
</g>
</svg>
