<?xml version="1.0" encoding="utf-8"?>
<!-- Generator: Adobe Illustrator 26.5.0, SVG Export Plug-In . SVG Version: 6.00 Build 0)  -->
<svg version="1.1" id="Capa_1" xmlns="http://www.w3.org/2000/svg" xmlns:xlink="http://www.w3.org/1999/xlink" x="0px" y="0px"
	 viewBox="0 0 360 160" style="enable-background:new 0 0 360 160;" xml:space="preserve">
<style type="text/css">
	.st0{fill:#FFFFFF;stroke:#FFFFFF;stroke-width:0.2148;stroke-miterlimit:10;}
</style>
<path class="st0" d="M117,87v12H86.3V61.8H117v13.2H99.5v12H117z M148.6,74.9h12.3V61.8h-30.7c0,0,0,6.6,0,13.2
	c4.1,4.1,6.3,6.1,12.2,12c-3.5,0-12.2,0-12.2,0v12h30.7V87L148.6,74.9z M192.2,74.9h12.3V61.8h-30.7c0,0,0,6.6,0,13.2
	c4.1,4.1,6.3,6.1,12.2,12c-3.5,0-12.2,0-12.2,0v12h30.7V87L192.2,74.9z M273.7,46.7l-5.6,60.2l-24.1,6.5l-24.1-6.5l-5.6-60.2H273.7z
	 M262.5,58.9h-18.5h-18.8l0.9,7.3h17.9h1l-1,0.4l-17.2,7.2l0.6,7.1l16.7,0.1l8.9,0l-0.6,9.5l-8.4,2.4v0l-0.1,0l-8.1-2l-0.5-5.9h0
	h-7.5h0l1,11.4l15.2,4.5v0l0,0l15.1-4.4l2-22.5h-17.1h0l0,0l17.7-7.6L262.5,58.9z"/>
</svg>
