<?xml version="1.0" encoding="utf-8"?>
<!-- Generator: Adobe Illustrator 26.5.0, SVG Export Plug-In . SVG Version: 6.00 Build 0)  -->
<svg version="1.1" id="Capa_1" xmlns="http://www.w3.org/2000/svg" xmlns:xlink="http://www.w3.org/1999/xlink" x="0px" y="0px"
	 viewBox="0 0 360 160" style="enable-background:new 0 0 360 160;" xml:space="preserve">
<style type="text/css">
	.st0{fill:#E5E5E5;}
	.st1{fill:#C6C6C6;}
	.st2{fill:#D1D1D1;}
	.st3{fill:#FFFFFF;}
</style>
<g>
	<path class="st0" d="M120.1,57.3c4.3,3.8,8.2,8.1,12.4,12.2c1.4,1.4,2.7,2.8,4.1,4.2c0.1,0.6,0.2,1.2,0.2,1.8c0,8.6,0,17.3,0,25.9
		c0,1.3-0.4,1.7-1.7,1.7c-3.4,0-6.8,0-10.3,0c-0.8,0.2-1.5-0.1-2-0.7c-0.7-0.8-1.5-1.5-2.3-2.3c-13.6-13.6-27.1-27.1-40.7-40.7
		c-0.7-0.7-1.3-1.3-2-1.9c-0.3-0.3-0.4-0.7-0.2-1.1c0.1,0,0.2-0.1,0.2-0.1c1.6-0.5,3.3-0.4,5-0.4c10.1,0,20.2-0.1,30.3,0
		C115.6,55.8,118.1,55.7,120.1,57.3z"/>
	<path class="st1" d="M78.1,57.3c0.9,0.5,1.5,1.3,2.2,2c14.2,14.2,28.4,28.4,42.7,42.6c0.4,0.4,0.8,0.7,1.2,1
		c0.3-0.2,0.6-0.3,0.6,0.2c-0.2,0-0.4,0.1-0.6,0.1c-0.6,0.5-1.3,0.5-2,0.5c-12.9,0-25.7,0-38.6,0c-0.7,0-1.3-0.1-1.8-0.6
		c-1.5-1.1-2.7-2.5-4-3.9c-0.2-0.3-0.3-0.6-0.3-0.9c-0.2-1.5-0.2-2.9-0.2-4.4c0-11.4,0-22.9,0-34.3C77.3,58.9,77,57.9,78.1,57.3z"/>
	<path class="st2" d="M81.8,103.3c0.6,0.2,1.2,0,1.8,0c13.6,0,27.1,0,40.7,0c0,3.8,0,7.5,0,11.3c0,1-0.3,1.4-1.4,1.4
		c-9.2,0-18.4,0-27.6,0c-0.5,0-1,0-1.3-0.4C89.8,111.5,85.6,107.6,81.8,103.3z"/>
	<path class="st3" d="M295,97.5c0,1.3-0.1,2.6,0,3.7c0.2,1.5-0.5,2.1-1.8,2.3c-5.9,1-10.7-1.1-12.1-6.3c-0.3-1.1-0.3-2.3-0.3-3.4
		c0-6.2,0-12.4,0-18.6c0-1.2-0.2-1.8-1.6-1.7c-1,0.1-2.1-0.1-3.1,0c-1.2,0.1-1.4-0.4-1.4-1.5c0-3.8,0-3.8,3.7-3.8
		c2.6,0,2.4,0.3,2.4-2.5c0-2.1,0-4.1,0-6.2c0-0.7,0.2-1.1,1-1c0.1,0,0.1,0,0.2,0c4.5-0.2,4.5-0.2,4.5,4.4c0,1.4,0,2.8,0,4.2
		c0,0.8,0.3,1.2,1.1,1.1c2,0,4,0,6,0c0.9,0,1.2,0.2,1.3,1.2c0.2,4.1,0.2,4-3.9,4.1c-1.4,0-3.3-0.6-4.2,0.3c-0.8,0.9-0.2,2.7-0.2,4.1
		c0,4.8,0,9.6,0,14.4c0,5.4,2.8,7.3,7.8,5.4C294.5,97.6,294.6,97.6,295,97.5z"/>
	<path class="st2" d="M120.1,57.3c-2.6-0.9-5.3-0.9-8-0.9c-11.1,0-22.2,0-33.2,0c-0.3,0-0.6-0.1-1-0.1c3.7-2.2,7.6-3.9,11.4-5.9
		c3.5-1.8,7.1-3.5,10.6-5.3c3.3-1.7,6.5-1.5,9.2,1C112.9,49.7,116.7,53.3,120.1,57.3z"/>
	<path class="st0" d="M77.8,98.7c0,0.2,0,0.5,0,0.7c-3.6-3.6-7.3-7.1-10.8-10.8c-2.3-2.5-2.6-5.5-1.1-8.6c3.7-7.7,7.4-15.4,11.1-23
		c0.8,0.5,0.5,1.3,0.5,1.9c0,11.4,0,22.8,0,34.2C77.5,95,77.4,96.9,77.8,98.7z"/>
	<path class="st3" d="M256.3,74.4c2.8-5.1,6.8-6.7,11.9-6.5c0.9,0,1.4,0.3,1.3,1.3c-0.1,1.1-0.1,2.2,0,3.3c0.1,1.2-0.4,1.4-1.5,1.3
		c-5.6-0.7-9.7,2.1-11.1,7.3c-0.3,1.1-0.3,2.3-0.3,3.4c0,5.7,0,11.4,0,17.1c0,1.3-0.3,1.7-1.6,1.7c-4.2-0.1-4.2,0-4.2-4.1
		c0-9.6,0-19.1,0-28.7c0-1.4,0.4-1.7,1.7-1.7c3.8,0.1,3.8,0,3.8,3.9C256.3,73,256.3,73.5,256.3,74.4z"/>
	<path class="st1" d="M77.8,98.7c-0.6-1.1-0.6-2.3-0.6-3.5c0-12.2,0-24.4,0-36.6c0-0.6,0.1-1.2-0.2-1.8c0.1-0.4,0.2-0.7,0.7-0.6
		c0.1,0.3,0.3,0.7,0.4,1c-0.4,0.6-0.3,1.3-0.3,1.9c0,12.3,0,24.6,0,36.8C77.8,97,78.4,97.8,77.8,98.7z"/>
	<path class="st0" d="M124.7,103.2c-0.2-0.1-0.4-0.2-0.6-0.2c0.5-0.5,1.1-0.3,1.7-0.3c2.9,0,5.8-0.1,8.6,0c1.6,0.1,2.2-0.3,2.1-2
		c-0.1-8.9-0.1-17.8-0.1-26.7c0-0.1,0.1-0.2,0.1-0.3c0.5,0.3,0.3,0.9,0.3,1.3c0,9,0,17.9,0,26.9c0,1.1-0.3,1.5-1.4,1.5
		C131.9,103.2,128.3,103.2,124.7,103.2z"/>
	<path class="st3" d="M173.4,78.6c0-7.6,0-15.1,0-22.7c0-0.9-0.1-1.6,1.2-1.5c5.7,0.2,11.4-0.2,17.1,0.3c11.2,1,19.9,10,20.6,21.3
		c0.3,5.8-0.4,11.4-3.6,16.4c-3.7,5.8-9.2,9-15.9,10c-6.1,0.9-12.3,0.2-18.4,0.4c-1.2,0-0.9-0.8-0.9-1.4
		C173.4,93.7,173.4,86.1,173.4,78.6z M179.1,95.8c0,0.9,0.1,1.4,1.2,1.4c3.4-0.1,6.8,0.1,10.1-0.1c6.3-0.5,11.3-3.2,14.3-9.1
		c2-3.9,2.1-8,1.8-12.3c-0.5-7.6-5.6-13.6-13.1-15.3c-4.3-1-8.6-0.4-12.8-0.6c-1.2-0.1-1.5,0.4-1.4,1.5c0,5.7,0,11.4,0,17.1
		C179.1,84.2,179.1,90,179.1,95.8z"/>
	<path class="st3" d="M239.3,97.6c-4.1,5.5-9.2,7.1-15.3,5.7c-7.3-1.7-11.1-8.9-8.2-15.5c1.8-4,5.2-5.9,9.3-6.7
		c4.5-0.9,9-0.5,13.3,1.3c0.2,0.1,0.5,0.2,0.8,0.3c1.2-6.8-4.4-10.9-10.6-10.3c-2.9,0.3-5.3,1.5-7.2,3.8c-0.6,0.8-1,0.8-1.7,0.2
		c-0.4-0.4-0.9-0.7-1.3-1c-2.2-1.7-2.3-1.7-0.2-3.7c3.2-3.2,7.2-4.4,11.6-4.4c4.8,0,9.2,1.1,12.4,5.1c2,2.5,2.7,5.4,2.7,8.5
		c0.1,6.9,0,13.7,0,20.6c0,1-0.3,1.3-1.3,1.3c-4.2,0.1-4.2,0.1-4.2-4C239.4,98.5,239.3,98.3,239.3,97.6z M225.3,86.2
		c-2.9,1.1-4.7,3.8-4.5,6.7c0.2,2.7,2.3,4.9,5.3,5.6c6.1,1.4,12.4-3.2,13.1-9.5c0.1-0.8-0.1-1.3-0.9-1.7c-2.5-1.3-5.2-1.9-8-1.9
		C228.7,85.3,227,85.5,225.3,86.2z"/>
</g>
</svg>
