<?xml version="1.0" encoding="utf-8"?>
<!-- Generator: Adobe Illustrator 26.5.0, SVG Export Plug-In . SVG Version: 6.00 Build 0)  -->
<svg version="1.1" id="Capa_1" xmlns="http://www.w3.org/2000/svg" xmlns:xlink="http://www.w3.org/1999/xlink" x="0px" y="0px"
	 viewBox="0 0 360 160" style="enable-background:new 0 0 360 160;" xml:space="preserve">
<style type="text/css">
	.st0{fill:#FFFFFF;}
</style>
<g id="SVGRepo_iconCarrier_00000178184528436026588870000000146191655919935398_">
	<g>
		<path class="st0" d="M220.2,65.3c3.7,0,7.1,0.4,11.2,1.2l-2.9,6.2c-2.3-0.4-0.2-0.1-1.9-0.2v0.9l0.1,3.6l0.1,4.7
			c0.1,1.2,0.1,2.3,0.1,3.5v2.3l0,0c0,7.4-0.6,10.8-2.5,13.7c-2.7,4.2-7.3,6.3-13.9,6.3c-3.4,0-6.3-0.5-9.3-1.7v-7.9h0
			c3,1.6,6,2.3,9.2,2.3c5.6,0,8-2.3,8-7.8v-0.2l0,0c-1.7,0.8-3.4,1.2-5.6,1.2c-7.5,0-12.3-5-12.3-12.8
			C200.5,70.8,207.6,65.3,220.2,65.3z M142.2,65.8v19.9c0,6.9-0.5,10.2-2,13c-1.4,2.7-3.2,4.5-7,6.4l-8-3.8c3.8-1.8,5.6-3.3,6.8-5.8
			c1.2-2.5,1.6-5.3,1.6-12.8v-17H142.2z M244.8,65.1c8.6,0,13.8,5.4,13.8,14.2c0,9-5.5,14.6-14.2,14.6c-8.6,0-13.9-5.4-13.9-14.1
			C230.5,70.7,236,65.1,244.8,65.1z M158.8,65.2c4.4,0,7.3,1.2,8.6,3.5c0.7,1.3,0.9,3,0.9,6.5v17.5c-3.9,0.6-8.7,0.9-12.3,0.9
			c-7.2,0-10.4-2.5-10.4-8.1c0-6,4.3-8.8,14.9-9.7v-1.9c0-1.6-0.8-2.1-3-2.1c-3.2,0-6.8,0.9-10.1,2.6v-6.6h0
			C151.2,66,154.8,65.2,158.8,65.2z M128.5,52.5v39.8c-4.4,0.8-7.7,1.2-11.2,1.2c-10.5,0-16-4.7-16-13.8c0-8.8,5.8-14.5,14.8-14.5
			c1.4,0,2.5,0.1,3.7,0.4V52.5H128.5z M186,65.2c4.4,0,7.6,1,9.5,3c1.8,1.8,2.3,3.9,2.3,8.2v16.9h-8.6V76.6c0-3.3-1.1-4.5-4.2-4.5
			c-1.2,0-2.2,0.1-4,0.6v20.4h-8.6v-26C177.6,65.8,181.8,65.2,186,65.2z M160.8,81.4c-5.7,0.6-7.5,1.5-7.5,3.7
			c0,1.7,1.1,2.5,3.4,2.5c1.3,0,2.5-0.1,4.1-0.4V81.4z M244.7,72c-3.4,0-5.4,2.7-5.4,7.5c0,4.7,2,7.5,5.3,7.5c3.3,0,5.2-2.7,5.2-7.5
			C249.9,74.8,248,72,244.7,72z M117,72.1c-4.4,0-6.9,2.7-6.9,7.4c0,4.6,2.4,7.1,6.8,7.1c0.9,0,1.7-0.1,3-0.2V72.6
			C118.9,72.2,118.1,72.1,117,72.1z M212.4,73.4c-2.1,1.2-3.1,3.3-3.1,6.3c0,4.3,2.1,6.8,5.9,6.8c1.2,0,2.1-0.2,3.2-0.6v-3
			c0-1-0.1-2.1-0.1-3.3l-0.1-4l-0.1-2.8v-0.7h-0.9C215.7,72.1,213.8,72.6,212.4,73.4z M142.2,52.6v8.8h-8.6v-8.8H142.2z"/>
	</g>
</g>
</svg>
