<?xml version="1.0" encoding="utf-8"?>
<!-- Generator: Adobe Illustrator 26.5.0, SVG Export Plug-In . SVG Version: 6.00 Build 0)  -->
<svg version="1.1" id="Capa_1" xmlns="http://www.w3.org/2000/svg" xmlns:xlink="http://www.w3.org/1999/xlink" x="0px" y="0px"
	 viewBox="0 0 360 160" style="enable-background:new 0 0 360 160;" xml:space="preserve">
<style type="text/css">
	.st0{fill:#FFFFFF;}
</style>
<g id="SVGRepo_iconCarrier_00000141456296663010795410000004759490213970035358_">
	<g>
		<path class="st0" d="M118,58.9l2.1,1.5c3.6,2.9,5.7,6.2,6.2,10c3.9-0.8,8.9-0.2,11.1,1.3l0,0l2,1.2l-0.4,0.8
			c-0.6,1.4-0.8,1.8-0.9,2c-3.5,7.1-10.5,7.2-13.8,7.1C116,103.5,98.4,115,74.6,115c-11,0-19.4-3.5-25-10.4
			c-7.5-9.1-7.5-20.9-6.8-24.7l0,0l0.2-0.8h65.7c3.5,0,6.1-0.9,7.4-1.7c-1.4-2.1-1.8-4.4-1.9-5.8c-0.3-3.8,0.6-7.8,2.5-10.6l0,0
			L118,58.9z M175,63.2c0.7,0,1.4,0.2,1.9,0.7c0.5,0.5,0.8,1.1,0.8,1.9v23.4c0,3.9-1.4,7.2-4.1,9.9c-2.8,2.7-6.1,4.1-9.9,4.1
			c-3.9,0-7.2-1.4-9.9-4.1c-2.7-2.7-4.1-6-4.1-9.9s1.4-7.2,4.1-9.9c2.7-2.7,6-4.1,9.9-4.1c3.3,0,6.2,1,8.8,3.1V65.8
			c0-0.7,0.2-1.4,0.7-1.9C173.6,63.5,174.2,63.2,175,63.2z M194.6,75.2c3.8,0,7.1,1.4,9.9,4.1c1.4,1.4,2.4,2.9,3.1,4.5
			c0.7,1.6,1,3.4,1,5.4c0,3.9-1.4,7.2-4.1,9.9c-2.8,2.7-6.1,4.1-9.9,4.1c-3.9,0-7.2-1.4-9.9-4.1c-2.7-2.7-4.1-6-4.1-9.9
			s1.4-7.2,4.1-9.9C187.4,76.6,190.7,75.2,194.6,75.2z M225.5,75.2c3.5,0,6.6,1.1,9.1,3.4c0.6,0.5,0.9,1.2,0.9,2
			c0,0.7-0.2,1.4-0.7,1.9c-0.5,0.5-1.1,0.7-1.9,0.7c-0.6,0-1.2-0.2-1.7-0.6c-0.8-0.7-1.7-1.3-2.7-1.6c-0.9-0.4-1.9-0.5-3-0.5
			c-1.2,0-2.4,0.2-3.4,0.7c-1.1,0.5-2,1.1-2.8,1.9c-0.8,0.8-1.4,1.7-1.9,2.8c-0.5,1.1-0.7,2.2-0.7,3.4s0.2,2.4,0.7,3.4
			c0.5,1.1,1.1,2,1.9,2.8s1.7,1.4,2.8,1.9c1.1,0.5,2.2,0.7,3.4,0.7c1.1,0,2.1-0.2,3-0.5c0.9-0.4,1.8-0.9,2.6-1.6
			c0.5-0.3,1-0.5,1.6-0.5c0.7,0,1.4,0.2,1.9,0.7c0.5,0.5,0.7,1.1,0.7,1.9c0,0.7-0.3,1.4-0.8,1.9c-2.6,2.3-5.6,3.4-9.1,3.4
			c-3.9,0-7.2-1.4-9.9-4.1c-2.7-2.7-4.1-6-4.1-9.9s1.4-7.2,4.1-9.9C218.3,76.6,221.6,75.2,225.5,75.2z M241.1,63.2
			c0.7,0,1.3,0.3,1.8,0.8c0.5,0.5,0.8,1.1,0.8,1.9v19.5l14.9-9.7c0.4-0.3,0.9-0.4,1.4-0.4c0.4,0,0.7,0.1,1,0.2
			c0.3,0.1,0.6,0.3,0.8,0.6c0.2,0.2,0.4,0.5,0.6,0.8c0.1,0.3,0.2,0.6,0.2,1c0,0.9-0.3,1.6-1,2.1l-10.5,6.8l10.7,12.1
			c0.5,0.5,0.7,1.1,0.7,1.8c0,0.3-0.1,0.7-0.2,1c-0.1,0.3-0.3,0.6-0.6,0.8s-0.5,0.4-0.8,0.6c-0.3,0.1-0.7,0.2-1,0.2
			c-0.7,0-1.3-0.2-1.7-0.7l-11.5-13l-3,2v9c0,0.7-0.3,1.3-0.8,1.8c-0.5,0.5-1.1,0.8-1.8,0.8c-0.7,0-1.4-0.3-1.9-0.8
			c-0.5-0.5-0.8-1.1-0.8-1.8V65.9c0-0.7,0.3-1.4,0.8-1.9C239.7,63.5,240.3,63.2,241.1,63.2z M279.5,75.2c3.8,0,7.1,1.4,9.9,4.1
			c1.4,1.3,2.4,2.9,3.1,4.5c0.7,1.7,1,3.5,1,5.4c0,0.7-0.3,1.4-0.8,1.9c-0.5,0.5-1.1,0.7-1.9,0.7h-19.8c0.3,0.9,0.7,1.8,1.2,2.5
			s1.2,1.4,1.9,1.9s1.6,1,2.4,1.3c0.9,0.3,1.8,0.4,2.8,0.4c1.1,0,2.1-0.2,3-0.5c0.9-0.3,1.8-0.8,2.5-1.5c0.5-0.4,1.1-0.6,1.7-0.6
			c0.7,0,1.4,0.2,1.9,0.7c0.5,0.5,0.7,1.1,0.7,1.9c0,0.7-0.2,1.4-0.7,1.9c-2.6,2.3-5.6,3.4-9.1,3.4c-3.9,0-7.2-1.4-9.9-4.1
			c-2.7-2.7-4.1-6-4.1-9.9s1.4-7.2,4.1-9.9C272.3,76.6,275.6,75.2,279.5,75.2z M310.4,75.2c0.7,0,1.5,0,2.4,0.1
			c0.8,0.1,1.6,0.3,2.3,0.5s1.3,0.6,1.8,1.1s0.7,1,0.7,1.7c0,0.4-0.1,0.7-0.2,1c-0.1,0.3-0.3,0.6-0.6,0.8c-0.2,0.2-0.5,0.4-0.8,0.6
			c-0.3,0.1-0.7,0.2-1,0.2c-0.3,0-0.7-0.1-1.1-0.3c-1-0.4-2.2-0.6-3.4-0.6c-1.2,0-2.4,0.2-3.4,0.7s-2,1.1-2.8,1.9
			c-0.8,0.8-1.4,1.7-1.9,2.8c-0.5,1.1-0.7,2.2-0.7,3.4v11.4c0,0.7-0.3,1.3-0.8,1.8c-0.5,0.5-1.1,0.8-1.8,0.8c-0.7,0-1.4-0.3-1.9-0.8
			s-0.8-1.1-0.8-1.8V77.8c0-0.7,0.3-1.3,0.8-1.8c0.5-0.5,1.1-0.8,1.9-0.8c0.7,0,1.3,0.3,1.8,0.8c0.5,0.5,0.8,1.1,0.8,1.8v0.5
			c1.2-1,2.6-1.8,4.1-2.3S308.7,75.2,310.4,75.2z M163.6,80.5c-1.2,0-2.4,0.2-3.4,0.7c-1.1,0.5-2,1.1-2.8,1.9s-1.4,1.7-1.9,2.8
			c-0.5,1.1-0.7,2.2-0.7,3.4c0,1.2,0.2,2.3,0.7,3.4c0.5,1.1,1.1,2,1.9,2.8c0.8,0.8,1.7,1.4,2.8,1.9c1.1,0.5,2.2,0.7,3.4,0.7
			c1.2,0,2.4-0.2,3.4-0.7c1.1-0.5,2-1.1,2.8-1.9s1.4-1.7,1.9-2.8c0.5-1.1,0.7-2.2,0.7-3.4c0-1.2-0.2-2.3-0.7-3.4
			c-0.5-1.1-1.1-2-1.9-2.8c-0.8-0.8-1.7-1.4-2.8-1.9C165.9,80.7,164.8,80.5,163.6,80.5z M194.6,80.5c-1.2,0-2.4,0.2-3.4,0.7
			c-1.1,0.5-2,1.1-2.8,1.9c-0.8,0.8-1.4,1.7-1.9,2.8c-0.5,1.1-0.7,2.2-0.7,3.4c0,1.2,0.2,2.3,0.7,3.4c0.5,1.1,1.1,2,1.9,2.8
			c0.8,0.8,1.7,1.4,2.8,1.9c1.1,0.5,2.2,0.7,3.4,0.7c1.2,0,2.4-0.2,3.4-0.7c1.1-0.5,2-1.1,2.8-1.9c0.8-0.8,1.4-1.7,1.9-2.8
			c0.5-1.1,0.7-2.2,0.7-3.4c0-1.2-0.2-2.3-0.7-3.4c-0.5-1.1-1.1-2-1.9-2.8c-0.8-0.8-1.7-1.4-2.8-1.9
			C196.9,80.7,195.8,80.5,194.6,80.5z M279.5,80.5c-0.9,0-1.9,0.1-2.8,0.4c-0.9,0.3-1.7,0.7-2.5,1.3c-0.7,0.5-1.4,1.2-1.9,1.9
			s-1,1.6-1.2,2.5h16.8c-0.3-0.9-0.7-1.8-1.3-2.5c-0.6-0.8-1.2-1.4-1.9-1.9s-1.6-1-2.4-1.3C281.3,80.6,280.4,80.5,279.5,80.5z
			 M60,67.7v9.5H50v-9.5H60z M71.8,67.7v9.5h-10v-9.5H71.8z M83.7,67.7v9.5h-10v-9.5H83.7z M95.5,67.7v9.5h-10v-9.5H95.5z
			 M107.3,67.7v9.5h-10v-9.5H107.3z M95.5,56.4v9.5h-10v-9.5H95.5z M83.7,56.4v9.5h-10v-9.5H83.7z M71.8,56.4v9.5h-10v-9.5H71.8z
			 M95.5,45v9.5h-10V45H95.5z"/>
	</g>
</g>
</svg>
