<?xml version="1.0" encoding="utf-8"?>
<!-- Generator: Adobe Illustrator 26.5.0, SVG Export Plug-In . SVG Version: 6.00 Build 0)  -->
<svg version="1.1" id="Capa_1" xmlns="http://www.w3.org/2000/svg" xmlns:xlink="http://www.w3.org/1999/xlink" x="0px" y="0px"
	 viewBox="0 0 360 160" style="enable-background:new 0 0 360 160;" xml:space="preserve">
<style type="text/css">
	.st0{fill:#FFFFFF;}
</style>
<g>
	<g>
		<path class="st0" d="M92.11,41.2c3.44,0,6.88-0.01,10.32,0.01c0.44,0,1.04-0.21,1.26,0.32c0.18,0.44-0.33,0.72-0.62,1
			c-16.1,16.11-32.2,32.2-48.29,48.32c-0.78,0.78-1.34,0.92-2.18,0.06c-3.29-3.35-6.61-6.67-9.96-9.95
			c-0.8-0.79-0.72-1.29,0.04-2.04c12.27-12.24,24.53-24.5,36.77-36.77c0.68-0.68,1.41-0.96,2.35-0.95
			C85.24,41.22,88.67,41.2,92.11,41.2z"/>
		<path class="st0" d="M92.08,118.75c-3.44,0-6.88-0.02-10.32,0.01c-0.89,0.01-1.61-0.21-2.26-0.85c-2.99-2.92-5.92-5.89-8.82-8.9
			c-3.29-3.41-6.69-6.72-10.04-10.07c-1.33-1.33-1.24-1.24,0.09-2.54c3.14-3.03,6.18-6.16,9.27-9.24c3.3-3.27,6.62-6.52,9.93-9.78
			c0.48-0.47,1.07-0.5,1.69-0.5c6.97,0,13.95,0,20.92,0.01c0.4,0,0.95-0.16,1.14,0.28c0.23,0.54-0.35,0.8-0.65,1.11
			c-6.07,6.09-12.14,12.19-18.26,18.23c-0.92,0.91-0.9,1.42,0.01,2.32c6.05,5.98,12.06,12,18.06,18.04
			c0.46,0.46,1.42,0.87,1.09,1.58c-0.31,0.66-1.27,0.29-1.94,0.29C98.68,118.76,95.38,118.75,92.08,118.75z"/>
		<path class="st0" d="M280.07,88.33c-3.67,0-7.34,0.03-11.01-0.01c-1.11-0.01-1.57,0.2-1.37,1.5c0.69,4.44,3.58,7.79,7.8,8.86
			c4.25,1.07,8.5-0.39,11.08-4.01c0.86-1.21,1.62-1.5,2.83-0.68c0.38,0.26,0.82,0.43,1.23,0.65c1.88,1.02,1.92,1.06,0.64,2.85
			c-3.03,4.23-7.15,6.36-12.37,6.78c-9,0.72-15.53-5.6-16.79-13.24c-1-6.09,0-11.83,4.33-16.52c2.64-2.86,5.99-4.44,9.97-4.66
			c4.76-0.26,8.94,0.95,12.3,4.43c3.39,3.5,4.34,7.88,4.36,12.57c0,1.12-0.6,1.51-1.7,1.49C287.6,88.31,283.83,88.33,280.07,88.33z
			 M277.48,83.56C277.48,83.57,277.48,83.57,277.48,83.56c2.6,0,5.21,0.01,7.81,0c1.65-0.01,1.81-0.22,1.36-1.78
			c-1.22-4.29-4.74-6.69-9.64-6.58c-4.11,0.1-7.84,3.13-8.81,7.11c-0.25,1.01,0.18,1.25,1.05,1.25
			C272,83.56,274.74,83.56,277.48,83.56z"/>
		<path class="st0" d="M137.7,80.66c0-6.97,0-13.94,0-20.91c0-1.74,0.1-1.85,1.79-1.85c7.62-0.01,15.24-0.01,22.86,0
			c1.74,0,1.89,0.15,1.88,1.93c-0.01,4.07,0.39,3.63-3.52,3.64c-5.2,0.02-10.41,0.04-15.61-0.02c-1.33-0.01-1.79,0.43-1.77,1.76
			c0.07,3.81,0.02,7.62,0.03,11.43c0,1.77,0.09,1.85,1.93,1.85c4.92,0.01,9.85,0,14.77,0c1.97,0,2.01,0.03,2,2.05
			c-0.02,3.77,0.39,3.31-3.37,3.33c-4.55,0.02-9.11,0.04-13.66-0.02c-1.26-0.02-1.71,0.38-1.7,1.67c0.05,5.3,0.03,10.59,0.02,15.89
			c0,1.94-0.06,2.01-1.92,2c-4.29-0.03-3.71,0.52-3.73-3.67C137.68,93.39,137.7,87.03,137.7,80.66z"/>
		<path class="st0" d="M205.33,99.52c-1.43,1.59-2.96,2.9-4.84,3.76c-4.94,2.26-10.81,1.34-14.3-2.37
			c-1.86-1.97-2.66-4.42-2.98-7.06c-0.32-2.59-0.25-5.19-0.25-7.79c0-4.51,0.03-9.01-0.02-13.52c-0.01-1.31,0.44-1.9,1.78-1.79
			c0.83,0.07,1.67,0.05,2.51,0c1.22-0.07,1.63,0.49,1.62,1.67c-0.03,5.48-0.03,10.96,0,16.44c0.01,1.34,0.1,2.7,0.29,4.02
			c0.79,5.45,6.44,8.04,11.35,5.15c3.06-1.8,4.73-4.56,4.76-8.15c0.05-5.71,0.01-11.43,0.02-17.14c0-1.87,0.11-2,1.97-1.98
			c4.57,0.04,3.88-0.6,3.9,3.9c0.03,8.92,0.01,17.84,0.01,26.76c0,1.92-0.05,1.97-1.93,1.98c-3.42,0.02-3.42,0.02-3.69-3.36
			C205.52,99.92,205.44,99.81,205.33,99.52z"/>
		<path class="st0" d="M251.01,86.22c0,2.65,0.05,5.3-0.01,7.94c-0.1,4.65,3.11,5.49,6.27,4.4c1.49-0.51,1.86-0.32,1.8,1.36
			c-0.01,0.32,0,0.65,0,0.98c0,2.82-0.16,3-2.95,3.49c-6.1,1.06-10.95-2.94-10.97-9.11c-0.02-5.81-0.04-11.62,0.02-17.42
			c0.01-1.32-0.39-1.93-1.74-1.76c-0.14,0.02-0.28,0.02-0.42,0c-1.08-0.14-2.57,0.56-3.16-0.32c-0.75-1.12-0.25-2.7-0.22-4.09
			c0.01-0.71,0.55-0.91,1.16-0.92c0.84-0.01,1.67-0.01,2.51-0.02c1.8-0.01,1.84-0.06,1.85-1.91c0.01-1.86,0.03-3.72-0.01-5.58
			c-0.02-1.05,0.35-1.56,1.46-1.49c0.88,0.05,1.77,0.07,2.65,0c1.31-0.11,1.85,0.38,1.79,1.74c-0.08,1.95,0.01,3.9-0.03,5.85
			c-0.02,1.01,0.38,1.43,1.39,1.4c1.67-0.04,3.35,0.01,5.02-0.01c0.91-0.01,1.38,0.37,1.38,1.32c0.01,4.76,0.37,3.95-3.7,4.02
			c-0.93,0.02-1.86,0.04-2.79,0c-0.97-0.04-1.31,0.41-1.3,1.34C251.03,80.36,251.01,83.29,251.01,86.22z"/>
		<path class="st0" d="M222.49,86.99c0-3.11-0.03-6.23,0.01-9.34c0.02-1.13-0.4-1.64-1.55-1.56c-0.79,0.05-1.58,0.01-2.37,0.01
			c-1.73-0.02-1.88-0.16-1.88-1.94c0-3.78-0.29-3.38,3.35-3.4c0.37,0,0.74-0.02,1.12,0c0.95,0.06,1.34-0.36,1.33-1.31
			c-0.03-2.04,0.03-4.09-0.02-6.13c-0.03-1.16,0.44-1.6,1.57-1.54c0.93,0.05,1.86,0.04,2.79,0.01c0.95-0.03,1.34,0.39,1.33,1.33
			c-0.03,2.04,0.04,4.09-0.02,6.13c-0.04,1.17,0.43,1.56,1.56,1.52c1.67-0.06,3.35,0.01,5.02-0.02c1-0.01,1.44,0.46,1.45,1.43
			c0.05,4.62,0.26,3.82-3.54,3.93c-1.42,0.04-3.19-0.64-4.16,0.35c-0.91,0.93-0.29,2.67-0.31,4.04c-0.04,4.23-0.02,8.46-0.01,12.69
			c0,0.65,0,1.31,0.11,1.94c0.54,3.26,3.14,4.67,6.34,3.45c1.48-0.56,1.57-0.5,1.6,1.04c0.01,0.46,0,0.93,0,1.39
			c0,2.73-0.11,2.87-2.76,3.32c-6.25,1.08-10.95-2.83-10.96-9.13C222.48,92.48,222.49,89.73,222.49,86.99z"/>
		<path class="st0" d="M304.65,75.1c1.9-2.7,4.11-4.39,7.02-5.01c1.56-0.33,3.13-0.28,4.7,0.04c1.08,0.22,1.62,0.77,1.56,1.91
			c-0.05,0.97,0.01,1.95-0.01,2.93c-0.03,1.58-0.21,1.72-1.72,1.28c-3.47-1.01-6.57-0.5-8.98,2.35c-1.53,1.81-2.45,3.89-2.42,6.36
			c0.06,5.43,0.02,10.87,0.02,16.3c0,2.07-0.09,2.18-2.08,2.16c-4.37-0.04-3.77,0.57-3.79-3.74c-0.03-8.87-0.01-17.74-0.01-26.61
			c0-2.25,0.05-2.31,2.22-2.3c3.35,0.02,3.42-0.43,3.37,3.29C304.53,74.28,304.58,74.5,304.65,75.1z"/>
		<path class="st0" d="M175.73,80.65c0,6.87,0,13.75,0,20.62c0,2.12-0.01,2.15-2.06,2.13c-4.16-0.03-3.59,0.5-3.59-3.65
			c-0.02-13.19-0.01-26.38-0.01-39.57c0-2.27,0-2.29,2.19-2.27c3.95,0.03,3.45-0.45,3.46,3.51
			C175.75,67.83,175.73,74.24,175.73,80.65z"/>
	</g>
</g>
</svg>
