<?xml version="1.0" encoding="utf-8"?>
<!-- Generator: Adobe Illustrator 26.5.0, SVG Export Plug-In . SVG Version: 6.00 Build 0)  -->
<svg version="1.1" xmlns="http://www.w3.org/2000/svg" xmlns:xlink="http://www.w3.org/1999/xlink" x="0px" y="0px"
	 viewBox="0 0 360 160" style="enable-background:new 0 0 360 160;" xml:space="preserve">
<style type="text/css">
	.st0{fill:#FFFFFF;}
</style>
<g id="Capa_2">
	<g id="SVGRepo_iconCarrier">
		<g>
			<path class="st0" d="M199.1,67.1c-4.2,0-7.4,2.1-7.4,7.1c0,3.8,2.1,6.4,7.1,6.4c4.3,0,7.2-2.5,7.2-6.5
				C206.1,69.5,203.5,67.1,199.1,67.1L199.1,67.1L199.1,67.1z M190.7,102.4c-1,1.2-2,2.5-2,4.1c0,3.1,3.9,4,9.3,4
				c4.5,0,10.5-0.3,10.5-4.5c0-2.5-2.9-2.6-6.6-2.8L190.7,102.4L190.7,102.4z M213.4,67.4c1.4,1.8,2.8,4.2,2.8,7.8
				c0,8.5-6.7,13.5-16.4,13.5c-2.5,0-4.7-0.3-6.1-0.7l-2.5,4.1l7.5,0.5c13.3,0.8,21.1,1.2,21.1,11.4c0,8.8-7.8,13.8-21.1,13.8
				c-13.9,0-19.2-3.5-19.2-9.6c0-3.5,1.5-5.3,4.2-7.8c-2.5-1.1-3.4-3-3.4-5.1c0-1.7,0.8-3.2,2.2-4.7c1.4-1.5,2.9-2.9,4.8-4.6
				c-3.8-1.8-6.6-5.8-6.6-11.5c0-8.8,5.8-14.9,17.6-14.9c3.3,0,5.3,0.3,7.1,0.8h15v6.5L213.4,67.4L213.4,67.4z"/>
			<path class="st0" d="M234,53.4c-4.4,0-6.9-2.5-6.9-6.9c0-4.4,2.5-6.8,6.9-6.8c4.5,0,7,2.4,7,6.8C241,50.9,238.5,53.4,234,53.4
				L234,53.4L234,53.4z M224.1,99.6v-6.1L228,93c1.1-0.2,1.2-0.4,1.2-1.5V68.9c0-0.8-0.2-1.4-1-1.6l-4.1-1.5l0.8-6.2h15.9v31.9
				c0,1.2,0.1,1.4,1.2,1.5l3.9,0.5v6.1H224.1L224.1,99.6z"/>
			<path class="st0" d="M276.4,96.6c-3.3,1.6-8.1,3.1-12.5,3.1c-9.1,0-12.6-3.7-12.6-12.4V67.2c0-0.5,0-0.8-0.6-0.8h-5.4v-6.8
				c6.8-0.8,9.4-4.2,10.3-12.5h7.3V58c0,0.5,0,0.8,0.6,0.8h10.8v7.7h-11.4v18.4c0,4.5,1.1,6.3,5.2,6.3c2.2,0,4.4-0.5,6.2-1.2
				L276.4,96.6"/>
			<path class="st0" d="M162.6,76.4l-35.1-35.1c-2-2-5.3-2-7.3,0l-7.3,7.3l9.3,9.3c2.2-0.7,4.6-0.2,6.3,1.5c1.7,1.7,2.2,4.2,1.5,6.4
				l8.9,8.9c2.2-0.7,4.6-0.3,6.4,1.5c2.4,2.4,2.4,6.3,0,8.7c-2.4,2.4-6.3,2.4-8.7,0c-1.8-1.8-2.3-4.5-1.3-6.7l-8.3-8.3l0,21.9
				c0.6,0.3,1.1,0.7,1.6,1.2c2.4,2.4,2.4,6.3,0,8.7c-2.4,2.4-6.3,2.4-8.7,0c-2.4-2.4-2.4-6.3,0-8.7c0.6-0.6,1.3-1,2-1.3V69.4
				c-0.7-0.3-1.4-0.7-2-1.3c-1.8-1.8-2.3-4.5-1.3-6.7l-9.1-9.1L85.1,76.3c-2,2-2,5.3,0,7.3l35.1,35.1c2,2,5.3,2,7.3,0l35-35
				C164.6,81.8,164.6,78.5,162.6,76.4"/>
		</g>
	</g>
</g>
<g id="Capa_1">
</g>
</svg>
