<?xml version="1.0" encoding="utf-8"?>
<!-- Generator: Adobe Illustrator 26.5.0, SVG Export Plug-In . SVG Version: 6.00 Build 0)  -->
<svg version="1.1" id="Capa_1" xmlns="http://www.w3.org/2000/svg" xmlns:xlink="http://www.w3.org/1999/xlink" x="0px" y="0px"
	 viewBox="0 0 360 160" style="enable-background:new 0 0 360 160;" xml:space="preserve">
<style type="text/css">
	.st0{fill:#FFFFFF;stroke:#FFFFFF;stroke-width:0.2148;stroke-miterlimit:10;}
</style>
<g id="SVGRepo_iconCarrier">
	<g id="c133de6af664cd4f011a55de6b000d0b">
		<path class="st0" d="M73.9,63.2h11.8v11.7h10.8V63.2h11.8v35.4H96.5V86.7H85.7v11.9H73.9L73.9,63.2L73.9,63.2z M123.9,74.9h-10.4
			V63.2h32.7v11.7h-10.4v23.7h-11.8L123.9,74.9L123.9,74.9z M151.3,63.2h12.3l7.6,12.4l7.6-12.4h12.3v35.4h-11.8V81l-8.1,12.6h-0.2
			L162.9,81v17.5h-11.6C151.3,98.6,151.3,63.2,151.3,63.2z M197.1,63.2h11.8v23.7h16.6v11.7h-28.5V63.2z M228.3,47.2l5.3,59
			l23.6,6.6l23.7-6.6l5.3-59L228.3,47.2L228.3,47.2z M275.2,61.2l-0.3,3.7l-0.1,1.6h0h-17.4h0H247l0.7,7.4h9.6h0h14.9h2l-0.2,1.9
			l-1.7,19.1l-0.1,1.2l-14.8,4.1v0l0,0l-14.8-4.1l-1-11.4h3.3h3.9l0.5,5.8l8.1,2.2l0,0v0l8.1-2.2l0.8-9.4h-8.9h0H241l-1.8-19.9
			l-0.2-1.9h18.1h0h18.1L275.2,61.2z"/>
	</g>
</g>
</svg>
