<?xml version="1.0" encoding="utf-8"?>
<!-- Generator: Adobe Illustrator 26.5.0, SVG Export Plug-In . SVG Version: 6.00 Build 0)  -->
<svg version="1.1" id="Capa_1" xmlns="http://www.w3.org/2000/svg" xmlns:xlink="http://www.w3.org/1999/xlink" x="0px" y="0px"
	 viewBox="0 0 360 160" style="enable-background:new 0 0 360 160;" xml:space="preserve">
<style type="text/css">
	.st0{fill:#FFFDFD;}
</style>
<g id="SVGRepo_iconCarrier">
	<path class="st0" d="M152.6,44.3h16.1v45.2c0,20.4-9.8,27.5-25.3,27.5c-3.8,0-8.7-0.6-11.9-1.7l1.8-13c2.2,0.7,5.1,1.3,8.3,1.3
		c6.8,0,11-3.1,11-14.1V44.3L152.6,44.3z M182.8,99.2c4.2,2.2,11,4.5,17.9,4.5c7.4,0,11.3-3.1,11.3-7.8c0-4.3-3.4-7-12-10
		c-11.9-4.2-19.7-10.8-19.7-21.3c0-12.2,10.3-21.4,27-21.4c8.2,0,14,1.6,18.2,3.6L222,59.6c-2.8-1.4-8-3.4-14.8-3.4
		c-7,0-10.4,3.3-10.4,6.9c0,4.6,3.9,6.6,13.3,10.2c12.6,4.7,18.4,11.2,18.4,21.4c0,12-9.1,22.2-28.7,22.2c-8.2,0-16.2-2.2-20.3-4.5
		L182.8,99.2L182.8,99.2z"/>
</g>
</svg>
