<?xml version="1.0" encoding="utf-8"?>
<!-- Generator: Adobe Illustrator 26.5.0, SVG Export Plug-In . SVG Version: 6.00 Build 0)  -->
<svg version="1.1" xmlns="http://www.w3.org/2000/svg" xmlns:xlink="http://www.w3.org/1999/xlink" x="0px" y="0px"
	 viewBox="0 0 360 160" style="enable-background:new 0 0 360 160;" xml:space="preserve">
<style type="text/css">
	.st0{fill:#FFFFFF;}
	.st1{fill:#E0E0E0;}
</style>
<g id="Capa_2">
</g>
<g id="Capa_1">
	<g id="SVGRepo_iconCarrier">
		<g>
			<path class="st0" d="M256.1,81.3c3.6,0,6.5,1.5,8.8,4.6v-4h2.8V104h-2.8v-3.8c-2.5,3-5.4,4.5-8.7,4.5c-3.3,0-6-1.2-8.3-3.5
				c-2.2-2.3-3.3-5.1-3.3-8.3c0-3.2,1.1-6,3.4-8.3C250.3,82.4,253,81.3,256.1,81.3z M205.7,81.3c3.6,0,6.5,1.5,8.8,4.6v-4h2.8V104
				h-2.8v-3.8c-2.5,3-5.4,4.5-8.7,4.5c-3.3,0-6-1.2-8.3-3.5c-2.2-2.3-3.3-5.1-3.3-8.3c0-3.2,1.1-6,3.4-8.3
				C199.8,82.4,202.5,81.3,205.7,81.3z M280.3,74.1c4.3,0,7.4,0.3,9.3,1c2,0.6,3.7,1.6,5.2,3c1.4,1.3,2.6,3,3.3,4.9
				c0.8,1.9,1.2,4.2,1.2,6.8c0,2.6-0.6,5-1.8,7.3c-1.2,2.3-2.8,4-4.9,5.2c-2.1,1.2-5,1.8-8.9,1.8h-9.6V74.1H280.3z M239.3,81.9V104
				h-2.9V81.9H239.3z M160.8,74.1L173,98.6l12.1-24.6h0.5l4.3,29.9h-3L184,82.6L173.4,104h-0.8l-10.7-21.6L159,104h-2.9l4.3-29.9
				H160.8z M229.7,81.3c0.9,0,1.8,0.3,2.8,0.8l-1.5,2.4c-0.4-0.3-0.8-0.4-1.3-0.4c-0.9,0-1.7,0.4-2.5,1.3c-0.8,0.9-1.3,2-1.7,3.5
				c-0.4,1.4-0.5,3.9-0.5,7.6v7.5h-2.9V81.9h2.9v3.2c0.8-1.3,1.5-2.3,2.3-2.9C228,81.6,228.8,81.3,229.7,81.3z M311.5,74.1
				c3.1,0,5.5,0.6,7.1,1.9c1.6,1.3,2.5,3.1,2.5,5.4c0,1.3-0.3,2.5-1,3.6c-0.6,1.1-1.6,2-2.8,2.6c2.1,0.7,3.6,1.7,4.7,3
				c1.1,1.3,1.6,2.9,1.6,4.8c0,2.5-0.9,4.5-2.7,6.2c-1.8,1.6-4.1,2.4-7,2.4h-8.3V74.1H311.5z M256.3,84c-2.4,0-4.5,0.9-6.2,2.7
				c-1.7,1.8-2.5,3.9-2.5,6.3c0,2.4,0.9,4.6,2.6,6.4c1.7,1.8,3.8,2.7,6.2,2.7c2.4,0,4.5-0.9,6.2-2.6c1.7-1.7,2.6-3.9,2.6-6.5
				c0-2.5-0.8-4.7-2.5-6.4C260.8,84.9,258.8,84,256.3,84z M205.8,84c-2.4,0-4.5,0.9-6.2,2.7c-1.7,1.8-2.5,3.9-2.5,6.3
				c0,2.4,0.9,4.6,2.6,6.4c1.7,1.8,3.8,2.7,6.2,2.7c2.4,0,4.5-0.9,6.2-2.6c1.7-1.7,2.6-3.9,2.6-6.5c0-2.5-0.8-4.7-2.5-6.4
				C210.4,84.9,208.3,84,205.8,84z M279.1,77H277v24.2h3.5c3.6,0,6.2-0.2,7.8-0.5c1.6-0.4,3.1-1.1,4.3-2.1c1.2-1.1,2.2-2.4,2.8-3.9
				c0.6-1.5,1-3.3,1-5.3c0-2-0.4-3.8-1.1-5.5c-0.7-1.7-1.8-3-3.1-4.1c-1.4-1.1-3-1.8-4.8-2.2C285.4,77.2,282.7,77,279.1,77z
				 M310.2,89.6h-1.7v11.5h3.7c2.1,0,3.7-0.2,4.7-0.6c1-0.4,1.9-1.1,2.5-2c0.6-0.9,1-1.8,1-2.8c0-0.9-0.2-1.8-0.5-2.5
				c-0.4-0.7-0.9-1.4-1.6-1.9c-0.7-0.6-1.5-1-2.5-1.3C314.7,89.7,312.9,89.6,310.2,89.6z M312,77h-3.5v9.6h1.7
				c2.6,0,4.6-0.4,5.8-1.3c1.3-0.8,1.9-2.1,1.9-3.9C318,78.5,316,77,312,77z M237.8,73.3c0.7,0,1.2,0.2,1.7,0.7
				c0.5,0.4,0.7,1,0.7,1.7c0,0.6-0.2,1.2-0.7,1.7c-0.4,0.4-1,0.7-1.7,0.7c-0.6,0-1.2-0.2-1.7-0.7c-0.4-0.5-0.7-1-0.7-1.6
				c0-0.6,0.2-1.2,0.7-1.7C236.6,73.5,237.2,73.3,237.8,73.3z"/>
			<path class="st1" d="M161.2,37.6c-2,0.1-1.3,0.6-5.6,1.7c-4.3,1.1-9.6,0.7-14.2,2.7c-13.8,5.8-16.6,25.6-29.2,32.7
				c-9.4,5.3-18.9,5.7-27.4,8.4c-5.6,1.8-11.7,5.4-16.8,9.7c-3.9,3.4-4,6.4-8.2,10.6c-4.4,4.6-17.5,0.1-23.4,7.1
				c1.9,1.9,2.8,2.5,6.5,2c-0.8,1.5-5.4,2.7-4.5,4.9c0.9,2.3,12.1,3.8,22.2-2.3c4.7-2.8,8.5-6.9,15.8-7.9c9.5-1.3,20.4,0.8,31.4,2.4
				c-1.6,4.9-4.9,8.1-7.5,12c-0.8,0.9,1.6,1,4.4,0.4c5-1.2,8.6-2.2,12.4-4.4c4.6-2.7,5.3-9.6,11-11.1c3.2,4.9,11.8,6,17.2,2.1
				c-4.7-1.3-6-11.3-4.4-15.7c1.5-4.2,3-10.8,4.5-16.4c1.6-5.9,2.2-13.4,4.2-16.4c3-4.5,6.2-6.1,9.1-8.7c2.8-2.6,5.4-5.1,5.4-10.9
				C164,38.6,163,37.6,161.2,37.6L161.2,37.6z"/>
			<path class="st0" d="M157.4,41.1c0.5,1.6,1.2,2.4,4.4,2.7c-0.5,4.1-3.2,6.3-6.2,8.4c-2.7,1.9-5.6,3.7-7.5,6.6
				c-1.9,3-3.2,13.3-6.1,23.4c-2.6,8.8-6.5,17.4-13.3,21.2c-0.7-1.8,0.1-5.1-1.3-6.2c-0.9,2.6-2,5.1-3.2,7.4
				c-4,7.6-9.9,13.4-19.8,15.1c4.7-6.4,9.2-12.9,9.3-23.9c-3.3,0.7-3.2,8.5-6.6,10.6c-2.2,0.2-4.4,0.2-6.6,0.1
				c-9.1-0.5-18.5-3.3-27-0.5c-5.8,1.9-10.6,6.3-15.5,8.4c-5.8,2.5-10.2,3.5-17.4,2.5c-0.9-1.2,5.3-2.8,4.9-5.5
				c-2.8-0.3-4.5,0.4-6.9-0.7c0.3-0.5,0.7-0.9,1.2-1.3c4.5-3.1,17.2-0.7,20.6-4.1c2.1-2.1,3.5-4.2,4.9-6.3c1.4-2,2.8-4,5-5.8
				c0.8-0.7,1.7-1.3,2.6-1.9c3.7-2.5,8.3-4.9,12.9-6.5c6.2-2.2,12.4-2.3,19-4.9c4.1-1.6,8.5-3.5,12.1-6.2c0.9-0.6,1.7-1.3,2.4-2
				c10.3-10,12.3-27.7,28.4-29.4c1.9-0.2,3.5-0.1,5-0.2C154.3,42.2,155.8,42,157.4,41.1z M137.8,97.8c0.2,3.1,2,9.2,3.5,10.6
				c-3.1,0.7-8.4-0.5-9.7-2.7C132.3,102.6,135.9,99.7,137.8,97.8z"/>
			<path class="st1" d="M158.2,44.5c-0.6,1.3-1.8,2.9-1.8,6.1c0,0.6-0.4,0.9-0.4,0.1c0-3.2,0.9-4.5,1.8-6.3
				C158.1,43.7,158.4,44,158.2,44.5z M157.5,44c-0.7,1.2-2.4,3.4-2.7,6.6c-0.1,0.6-0.5,0.9-0.4,0c0.3-3.1,1.7-5.1,2.7-6.8
				C157.6,43.2,157.8,43.5,157.5,44z M157,43.4c-0.8,1.1-3.5,3.8-4,7c-0.1,0.5-0.6,0.8-0.4,0c0.6-3.1,2.9-5.5,4-7.2
				C157.1,42.6,157.3,42.9,157,43.4z M156.5,42.7l-0.3,0.3c-1.2,1.3-3.9,4.4-4.8,7.2c-0.2,0.5-0.7,0.8-0.4-0.1c1-3,3.8-6.2,5.2-7.6
				C156.7,41.9,156.9,42.2,156.5,42.7z M142.3,49.1c0.6-2.6,2.7-3.8,6.2-3.5C149.4,49.5,144.6,51.1,142.3,49.1z"/>
		</g>
	</g>
</g>
</svg>
