<?xml version="1.0" encoding="utf-8"?>
<!-- Generator: Adobe Illustrator 26.5.0, SVG Export Plug-In . SVG Version: 6.00 Build 0)  -->
<svg version="1.1" xmlns="http://www.w3.org/2000/svg" xmlns:xlink="http://www.w3.org/1999/xlink" x="0px" y="0px"
	 viewBox="0 0 360 160" style="enable-background:new 0 0 360 160;" xml:space="preserve">
<style type="text/css">
	.st0{fill-rule:evenodd;clip-rule:evenodd;fill:#FFFFFF;}
</style>
<g id="Capa_2">
	<g id="SVGRepo_iconCarrier_00000089536632628385820260000018032584687942790547_">
		<g>
			<g>
				<path class="st0" d="M306.2,72.8c-0.3,0.1-0.5,0.6-0.5,0.9c-0.1,2.1-0.1,7.7-0.1,11.5c0,0.1,0.2,0.3,0.3,0.3
					c0.8,0.1,2.7,0.1,4.3,0.1c2.3,0,3.6-0.3,4.3-0.6c1.9-0.9,2.8-3,2.8-5.3c0-5.1-3.6-7.1-8.9-7.1C308.1,72.6,307,72.6,306.2,72.8
					L306.2,72.8L306.2,72.8z M319.8,96.4c0-5.2-3.8-8.1-10.8-8.1c-0.3,0-2.5-0.1-3.1,0.1c-0.2,0.1-0.4,0.2-0.4,0.3
					c0,3.7-0.1,9.7,0.1,12c0.1,1,0.8,2.4,1.7,2.8c0.9,0.5,3.1,0.6,4.6,0.6C316.2,104.1,319.8,101.8,319.8,96.4L319.8,96.4
					L319.8,96.4z M295.5,69.9c0.5,0,2.1,0.2,6.2,0.2c3.8,0,6.9-0.1,10.6-0.1c4.6,0,10.9,1.6,10.9,8.5c0,3.4-2.4,6.1-5.5,7.4
					c-0.2,0.1-0.2,0.2,0,0.2c4.4,1.1,8.3,3.8,8.3,9c0,5.1-3.2,8.3-7.7,10.3c-2.8,1.2-6.3,1.6-9.8,1.6c-2.7,0-9.9-0.3-13.9-0.2
					c-0.4-0.2,0.4-2.1,0.7-2.4c0.9-0.1,1.7-0.1,2.7-0.4c1.4-0.4,1.6-0.8,1.8-3c0.1-1.8,0.1-8.4,0.1-13c0-6.4,0.1-10.7,0-12.8
					c-0.1-1.6-0.6-2.2-1.8-2.5c-0.9-0.2-2.4-0.4-3.6-0.5C294.3,71.9,295.1,70.1,295.5,69.9L295.5,69.9L295.5,69.9z M265.1,102.7
					c1.3,1,3.7,1.4,6,1.4c2.8,0,5.7-0.5,8.4-3c2.8-2.5,4.7-6.4,4.7-12.6c0-6-2.3-10.8-6.9-13.6c-2.6-1.6-6-2.3-9.9-2.3
					c-1.2,0-2.3,0.1-3,0.4c-0.2,0.1-0.5,0.6-0.5,0.8c-0.1,1.1-0.1,9.2-0.1,13.9c0,4.9,0,11.8,0.1,12.5
					C263.9,100.9,264.3,102.2,265.1,102.7L265.1,102.7L265.1,102.7z M253.1,69.9c1,0,4.8,0.2,6.7,0.2c3.3,0,5.7-0.2,12-0.2
					c5.3,0,9.7,1.4,12.9,4.1c3.8,3.3,5.8,7.9,5.8,13.5c0,8-3.6,12.5-7.3,15.2c-3.6,2.7-8.4,4.3-15.1,4.3c-3.6,0-9.7-0.1-14.9-0.2
					h-0.1c-0.3-0.5,0.4-2.3,0.8-2.4c1.4-0.2,1.7-0.2,2.4-0.5c1.1-0.4,1.3-1,1.5-3c0.2-3.6,0.1-8,0.1-13c0-3.5,0.1-10.4-0.1-12.6
					c-0.2-1.8-0.9-2.3-2.5-2.6c-0.8-0.2-1.8-0.4-3.3-0.5C251.9,71.9,252.8,70.2,253.1,69.9L253.1,69.9L253.1,69.9z"/>
				<path class="st0" d="M189.3,104.7c-1.3-0.2-2.3-0.4-3.4-0.9c-0.2-0.1-0.4-0.6-0.4-0.8c-0.1-1.8-0.1-7.1-0.1-10.6
					c0-2.8-0.5-5.3-1.7-7.1c-1.4-2-3.5-3.2-6.1-3.2c-2.3,0-5.4,1.6-8,3.8c-0.1,0.1-0.5,0.4-0.4-0.2c0-0.6,0.1-1.7,0.2-2.5
					c0.1-0.7-0.4-1.1-0.4-1.1c-1.7,0.8-6.4,2-8.2,2.1c-1.3,0.3-1.6,1.5-0.3,1.9h0.1c1.4,0.4,2.4,0.9,3.1,1.4c0.5,0.4,0.5,1,0.5,1.5
					c0.1,4,0.1,10-0.1,13.3c-0.1,1.3-0.4,1.8-1.4,2l0.1-0.1c-0.7,0.2-1.3,0.3-2.2,0.4c-0.3,0.3-0.3,2,0,2.4c0.6,0,3.6-0.2,6.2-0.2
					c3.5,0,5.3,0.2,6.2,0.2c0.4-0.4,0.5-2,0.3-2.4c-1-0.1-1.7-0.2-2.4-0.4c-0.9-0.2-1.2-0.7-1.3-1.8c-0.1-2.8-0.1-8.7-0.1-12.7
					c0-1.1,0.3-1.6,0.6-2c1.2-1.1,3.2-1.8,4.9-1.8c1.7,0,2.8,0.5,3.6,1.2c1.2,0.9,1.5,2.3,1.7,3.3c0.3,2.3,0.2,6.7,0.2,10.6
					c0,2.1-0.2,2.6-0.9,2.9c-0.4,0.2-1.3,0.4-2.4,0.5c-0.4,0.4-0.3,2,0,2.4c1.5,0,3.3-0.2,6-0.2c3.3,0,5.4,0.2,6.2,0.2
					C189.4,106.7,189.5,105.2,189.3,104.7L189.3,104.7L189.3,104.7z M203.9,84.6c-2.8,0-4.5,2.2-4.5,5.5c0,3.4,1.5,7.4,5.8,7.4
					c0.7,0,2.1-0.3,2.7-1.1c1-0.9,1.7-2.8,1.7-4.8C209.7,87.2,207.5,84.6,203.9,84.6L203.9,84.6L203.9,84.6z M203.6,107.9
					c-1.1,0-1.8,0.3-2.3,0.6c-2.2,1.4-3.2,2.8-3.2,4.4c0,1.5,0.6,2.7,1.8,3.8c1.5,1.3,3.6,2,6.3,2c5.4,0,7.7-2.9,7.7-5.7
					c0-2-1-3.3-3.1-4.1C209.5,108.2,206.8,107.9,203.6,107.9L203.6,107.9L203.6,107.9z M203.9,121.6c-3.2,0-5.5-0.7-7.5-2.2
					c-2-1.5-2.8-3.7-2.8-5.2c0-0.4,0.1-1.6,1.1-2.6c0.6-0.6,1.8-1.8,4.8-3.9c0.1-0.1,0.2-0.1,0.2-0.2c0-0.1-0.1-0.2-0.2-0.3
					c-2.5-0.9-3.2-2.5-3.4-3.3v-0.1c-0.1-0.3-0.2-0.6,0.3-0.9c0.4-0.3,0.9-0.6,1.5-0.9c0.9-0.5,1.8-1.1,2.4-1.6
					c0.1-0.1,0.1-0.2,0.1-0.3c0-0.1-0.1-0.2-0.2-0.3c-3.7-1.2-5.5-4-5.5-8.1c0-2.7,1.2-5.1,3.4-6.6c1.5-1.2,5.2-2.6,7.6-2.6h0.2
					c2.5,0.1,3.8,0.6,5.8,1.3c1.1,0.4,2.1,0.5,3.4,0.5c2.1,0,3-0.6,3.7-1.4c0.1,0.1,0.2,0.4,0.2,1.1c0.1,0.7-0.2,1.7-0.7,2.4
					c-0.4,0.6-1.4,1-2.3,1h-0.3c-0.9-0.1-1.4-0.2-1.4-0.2l-0.2,0.1c-0.1,0.1,0,0.2,0.1,0.4l0.1,0.1c0.1,0.5,0.3,1.9,0.3,2.3
					c0,4.3-1.7,6.2-3.6,7.6c-1.8,1.3-3.8,2.2-6.2,2.4c-0.1,0-0.3,0-0.7,0.1c-0.3,0-0.6,0.1-0.7,0.1h-0.1c-0.4,0.1-1.5,0.6-1.5,1.5
					c0,0.8,0.5,1.7,2.7,1.9c0.5,0.1,0.9,0.1,1.5,0.1c3,0.2,6.7,0.5,8.5,1.1c2.4,0.9,4,3.1,4,5.6c0,3.9-2.8,7.5-7.4,9.8
					C208.7,121.1,206.4,121.6,203.9,121.6L203.9,121.6L203.9,121.6z M234,84.9c-1.1,0-2.1,0.3-2.8,0.8c-2.1,1.3-3.1,3.8-3.1,7.5
					c0,6.9,3.5,11.8,8.4,11.8c1.5,0,2.6-0.4,3.6-1.3c1.5-1.3,2.3-3.8,2.3-7.3C242.4,89.5,239,84.9,234,84.9L234,84.9L234,84.9z
					 M234.9,107.4c-9,0-12.2-6.6-12.2-12.8c0-4.3,1.7-7.6,5.2-10c2.5-1.5,5.4-2.4,8.1-2.4c6.9,0,11.6,4.9,11.6,12
					c0,4.8-1.9,8.6-5.5,10.9C240.4,106.3,237.4,107.4,234.9,107.4L234.9,107.4L234.9,107.4z M141,84.9c-1.1,0-2.1,0.3-2.8,0.8
					c-2.1,1.3-3.1,3.8-3.1,7.5c0,6.9,3.5,11.8,8.4,11.8c1.5,0,2.6-0.4,3.6-1.3c1.5-1.3,2.3-3.8,2.3-7.3
					C149.4,89.5,146.1,84.9,141,84.9L141,84.9L141,84.9z M141.9,107.4c-9,0-12.2-6.6-12.2-12.8c0-4.3,1.7-7.6,5.2-10
					c2.5-1.5,5.4-2.4,8.1-2.4c6.9,0,11.6,4.9,11.6,12c0,4.8-1.9,8.6-5.5,10.9C147.5,106.3,144.5,107.4,141.9,107.4L141.9,107.4
					L141.9,107.4z M81.7,106.9c-0.1-0.2-0.2-0.6-0.2-1.2c0-0.4,0.1-0.7,0.2-0.8c1.1-0.2,1.7-0.3,2.3-0.5c1.1-0.3,1.5-0.8,1.5-2.2
					c0.2-3.2,0.2-9.2,0.1-13.3v-0.1c0-0.5,0-1.1-0.6-1.5c-0.8-0.5-1.8-1-3.2-1.4c-0.5-0.2-0.8-0.4-0.7-0.7c0-0.3,0.3-0.7,1-0.8
					c1.7-0.2,6.3-1.3,8.1-2.1c0.1,0.1,0.3,0.4,0.3,0.8l-0.1,0.6c-0.1,0.6-0.1,1.3-0.1,2c0,0.2,0.2,0.4,0.4,0.4
					c0.1,0,0.2-0.1,0.3-0.1c3.4-2.6,6.4-3.6,8-3.6c2.6,0,4.6,1.2,6.1,3.7c0.1,0.2,0.2,0.2,0.4,0.2c0.1,0,0.3-0.1,0.3-0.2
					c3.1-2.4,6.2-3.8,8.3-3.8c4.9,0,7.8,3.6,7.8,9.8c0,1.7,0,4-0.1,6.1c0,1.8-0.1,3.5-0.1,4.7c0,0.3,0.4,1.1,0.9,1.3
					c0.7,0.4,1.7,0.5,3.1,0.7h0.1c0.1,0.4-0.1,1.7-0.3,2c-0.3,0-0.8,0-1.3-0.1c-1-0.1-2.4-0.1-4-0.1c-3.3,0-5,0.1-6.6,0.2
					c-0.1-0.4-0.2-1.7,0-2c0.9-0.2,1.4-0.3,2-0.5c1.1-0.3,1.3-0.8,1.4-2.2c0-1,0.2-9.5-0.1-11.6c-0.3-2.1-1.9-4.6-5.4-4.6
					c-1.3,0-3.4,0.5-5.4,2.1c-0.1,0.1-0.2,0.4-0.2,0.5v0.1c0.2,1.1,0.2,2.4,0.2,4.3v3.4c0,2.4-0.1,4.6,0,6.3c0,1.2,0.7,1.4,1.3,1.6
					c0.3,0.1,0.5,0.1,0.8,0.2c0.5,0.1,0.9,0.2,1.7,0.4c0.1,0.2,0.1,0.9-0.1,1.5c-0.1,0.3-0.2,0.5-0.2,0.5c-1.8-0.1-3.6-0.1-6.3-0.1
					c-0.8,0-2.2,0.1-3.3,0.1c-0.9,0-1.8,0.1-2.4,0.1c-0.1-0.1-0.2-0.5-0.2-1.1c0-0.5,0.1-0.8,0.2-0.9c0.3-0.1,0.5-0.1,0.7-0.1
					c0.6-0.1,1.2-0.2,1.7-0.3c0.9-0.3,1.2-0.7,1.3-1.9c0.2-2.6,0.3-10.2-0.1-12.1c-0.6-3.1-2.4-4.6-5.2-4.6c-1.6,0-3.7,0.8-5.4,2.1
					c-0.3,0.2-0.5,0.7-0.5,1.2v3.1c0,3.8,0,8.5,0.1,10.6c0.1,0.6,0.3,1.4,1.5,1.6c0.3,0.1,0.7,0.2,1.2,0.2l0.9,0.2
					c0.1,0.3,0.1,1.6-0.2,2c-0.5,0-1.2-0.1-1.9-0.1c-1.1-0.1-2.5-0.1-4.1-0.1c-1.8,0-3.2,0.1-4.2,0.1
					C82.9,106.9,82.3,106.9,81.7,106.9L81.7,106.9L81.7,106.9z"/>
				<g>
					<path class="st0" d="M54,119.6l-2.2-0.7c0,0,0.3-11-3.7-11.8c-2.6-3.1,0.4-129.6,9.9-0.4c0,0-3.3,1.6-3.8,4.4
						C53.6,113.8,54,119.6,54,119.6L54,119.6L54,119.6z"/>
					<path class="st0" d="M54,119.6l-2.2-0.7c0,0,0.3-11-3.7-11.8c-2.6-3.1,0.4-129.6,9.9-0.4c0,0-3.3,1.6-3.8,4.4
						C53.6,113.8,54,119.6,54,119.6L54,119.6L54,119.6z"/>
					<path class="st0" d="M55.1,108.9c0,0,18.9-12.4,14.5-38.3c-4.3-18.8-14.3-25-15.4-27.4c-1.2-1.7-2.4-4.6-2.4-4.6l0.8,52.3
						C52.6,91,51,107,55.1,108.9"/>
					<path class="st0" d="M55.1,108.9c0,0,18.9-12.4,14.5-38.3c-4.3-18.8-14.3-25-15.4-27.4c-1.2-1.7-2.4-4.6-2.4-4.6l0.8,52.3
						C52.6,91,51,107,55.1,108.9"/>
					<path class="st0" d="M50.7,109.6c0,0-17.8-12.1-16.7-33.5c1-21.3,13.5-31.8,16-33.7c1.6-1.7,1.6-2.3,1.7-4
						c1.1,2.4,0.9,35.5,1.1,39.4C53.3,92.8,51.9,106.7,50.7,109.6L50.7,109.6L50.7,109.6z"/>
					<path class="st0" d="M50.7,109.6c0,0-17.8-12.1-16.7-33.5c1-21.3,13.5-31.8,16-33.7c1.6-1.7,1.6-2.3,1.7-4
						c1.1,2.4,0.9,35.5,1.1,39.4C53.3,92.8,51.9,106.7,50.7,109.6L50.7,109.6L50.7,109.6z"/>
				</g>
			</g>
		</g>
	</g>
</g>
<g id="Capa_1">
</g>
</svg>
