<?xml version="1.0" encoding="utf-8"?>
<!-- Generator: Adobe Illustrator 26.5.0, SVG Export Plug-In . SVG Version: 6.00 Build 0)  -->
<svg version="1.1" id="Capa_1" xmlns="http://www.w3.org/2000/svg" xmlns:xlink="http://www.w3.org/1999/xlink" x="0px" y="0px"
	 viewBox="0 0 360 160" style="enable-background:new 0 0 360 160;" xml:space="preserve">
<style type="text/css">
	.st0{fill:#FFFFFF;}
</style>
<g id="SVGRepo_iconCarrier">
	<g>
		<path class="st0" d="M130.4,52.9h35.5v2.8h-32.2v21.2h30.3v2.8h-30.3V103h32.6v2.8h-35.8V52.9z M169,52.9h3.8l16.7,23.3l17.1-23.3
			l23.2-29.6l-38.1,55.3l19.6,27.2h-3.9l-17.9-24.8l-17.9,24.8h-3.8l19.8-27.2L169,52.9z M212.6,55.7v-2.8H253v2.8h-18.6v50.1h-3.2
			V55.7H212.6z M86,52.9h4.1l56,83.8l-23.1-30.9L89.4,56.9l-0.1,48.9H86V52.9z M252.7,102.2c-0.7,0-1.2-0.5-1.2-1.2
			c0-0.7,0.5-1.2,1.2-1.2c0.7,0,1.2,0.5,1.2,1.2C253.9,101.6,253.4,102.2,252.7,102.2z M255.9,99.1h1.7c0,0.9,0.7,1.6,1.7,1.6
			c1.1,0,1.8-0.7,1.8-2v-8.1h1.8v8.1c0,2.3-1.3,3.6-3.5,3.6C257.3,102.3,255.9,101,255.9,99.1z M265.2,98.9h1.8
			c0.2,1.1,1.2,1.8,2.7,1.8c1.4,0,2.5-0.7,2.5-1.7c0-0.9-0.7-1.4-2.2-1.7l-1.5-0.4c-2.1-0.5-3-1.5-3-3.2c0-2,1.7-3.4,4.1-3.4
			c2.3,0,4,1.4,4.1,3.3h-1.7c-0.2-1.1-1.1-1.7-2.4-1.7c-1.4,0-2.3,0.7-2.3,1.7c0,0.8,0.6,1.3,2.1,1.6l1.3,0.3
			c2.3,0.5,3.3,1.5,3.3,3.2c0,2.2-1.7,3.6-4.4,3.6C267.1,102.3,265.4,101,265.2,98.9z"/>
	</g>
</g>
</svg>
