<?xml version="1.0" encoding="utf-8"?>
<!-- Generator: Adobe Illustrator 26.5.0, SVG Export Plug-In . SVG Version: 6.00 Build 0)  -->
<svg version="1.1" id="Capa_1" xmlns="http://www.w3.org/2000/svg" xmlns:xlink="http://www.w3.org/1999/xlink" x="0px" y="0px"
	 viewBox="0 0 360 160" style="enable-background:new 0 0 360 160;" xml:space="preserve">
<style type="text/css">
	.st0{fill:#FFFFFF;}
</style>
<g id="SVGRepo_iconCarrier_00000178909089957835678620000004243272306341780914_">
	<path class="st0" d="M180.4,57.9c-0.9,0.3-1.6,0.9-2.1,1.7c-0.9,1.3-0.9,1.3-1,8.6l-0.1,6.6h8.8l0-6.8l0-6.7l-0.4-0.9
		c-0.8-1.6-2-2.5-3.6-2.6C181.4,57.7,180.9,57.8,180.4,57.9L180.4,57.9z M80.3,58.5c-2.2,0.4-4.3,1.9-4.9,3.4
		c-0.3,0.7-0.3,1.2-0.3,18.4c0,20.3-0.1,18.8,1.1,20.1c0.5,0.5,1,0.9,1.6,1.2c0.8,0.4,1,0.4,2.3,0.4c1.3,0,1.5,0,2.3-0.4
		c1.1-0.5,1.9-1.3,2.3-2.3l0.3-0.8l0.1-13l0.1-13l3.8,4.6c2.1,2.5,6.8,8.3,10.5,12.8c7.1,8.7,8.7,10.5,10.1,11.2
		c1.5,0.8,2.5,1,4.2,1c2.4,0,3.9-0.6,4.8-2c1-1.4,0.9-0.1,0.9-20.1V61.9l-0.3-0.8c-0.4-1.1-1.3-2-2.4-2.4c-0.6-0.2-1.1-0.3-2.1-0.3
		c-1.5,0-2.1,0.1-3.1,0.8c-0.8,0.5-1.5,1.5-1.7,2.6c-0.1,0.4-0.1,5-0.1,13.7c0,7.2,0,13-0.1,13c-0.1,0-18.9-22.7-21.7-26.2
		c-1.4-1.7-2.4-2.7-3.4-3.1C83.3,58.6,81.5,58.3,80.3,58.5L80.3,58.5z M244.6,58.6c-1.3,0.3-2.5,1.3-3.1,2.6
		c-0.2,0.5-0.3,0.9-0.4,1.8c-0.1,1.1,0,1.4,0.3,2.2c0.7,1.9,0.9,2.2,7.4,8.7c3.4,3.4,6.2,6.3,6.2,6.4c0,0.1-2.8,2.9-6.2,6.4
		c-6.7,6.7-6.9,7-7.5,8.9c-0.4,1.4-0.3,3,0.3,4.1c1.6,2.9,5,3.4,8.5,1.1c0.3-0.2,3.4-3.2,6.8-6.5l6.1-6.1l6.1,6.1
		c3.4,3.4,6.4,6.3,6.7,6.5c1.6,1.1,3.3,1.6,4.7,1.5c1.7-0.2,3-1.1,3.8-2.5c0.6-1.1,0.7-2.7,0.3-4.1c-0.6-1.9-0.8-2.2-7.5-8.9
		c-3.4-3.4-6.2-6.3-6.2-6.4s2.8-2.9,6.2-6.4c6.6-6.6,6.8-6.9,7.4-8.7c0.3-0.8,0.3-1.2,0.3-2.2c0-0.9-0.1-1.4-0.4-1.8
		c-1-2-3.1-3.1-5.4-2.7c-0.4,0.1-1.4,0.4-2.1,0.8l-1.3,0.6L263,72.5l-6.3-6.3l-6.4-6.3l-1.3-0.6C247.2,58.4,245.9,58.2,244.6,58.6
		L244.6,58.6z M195.9,58.8c-1.3,0.3-2.4,1.2-3,2.4l-0.3,0.6v36.3l0.4,0.8c0.2,0.4,0.6,1,0.9,1.3c1.1,1.1,3.3,1.6,5.6,1.3
		c2.1-0.3,3.6-1.1,5.4-2.9c0.5-0.6,5.7-6.7,11.5-13.7l10.5-12.6l0.1,13l0.1,13l0.3,0.7c0.6,1.3,1.9,2.2,3.5,2.5
		c1.9,0.3,3.7-0.1,4.8-1.3c1.3-1.3,1.2,0.2,1.2-18.7c0-17.4,0-18.5-0.5-19.8c-0.5-1.3-2.5-2.6-4.4-3c-1.7-0.3-3.8,0.1-5.2,1
		c-0.5,0.3-1.6,1.5-3.8,4.2c-8.5,10.1-20.3,24.2-20.4,24.2c-0.1,0-0.1-5.9-0.1-13.1c0-11.8-0.1-13.1-0.3-13.6
		c-0.6-1.4-1.5-2.2-2.9-2.6C198.3,58.6,196.8,58.6,195.9,58.8L195.9,58.8z M133.6,59.3c-0.4,0.6-10.7,19.7-11,20.3l-0.2,0.4l6,10.8
		l6,10.8l25.1,0.1l6.2-11.4l6.2-11.4l-4.8-0.1c-8.6-0.1-22.2-0.1-23.1,0c-1.2,0.2-2.1,0.7-2.9,1.5c-2.3,2.5-0.8,6.2,2.9,6.9
		c0.5,0.1,3.2,0.1,7.4,0.1h6.6l-2.1,3.4l-2.1,3.4l-13.8,0.1l-3.8-6.8c-2.1-3.8-3.8-6.9-3.8-7c0-0.1,1.6-3.1,3.5-6.7l3.5-6.5h15.2
		l2.3,3.7l2.3,3.7l5,0h5l-0.2-0.3c-0.1-0.2-2.3-3.8-4.8-8l-4.6-7.7h-25.9L133.6,59.3L133.6,59.3z M177.3,88.6
		c0.1,9.5,0.1,9.7,0.3,10.5c0.4,1.3,1.1,2.1,2.2,2.7c1.1,0.6,2.3,0.6,3.4,0.1c0.9-0.4,1.9-1.5,2.3-2.5l0.3-0.8l0-9.8l0-9.8l-1.3-0.1
		c-0.7-0.1-2.7-0.1-4.4-0.1h-3.1L177.3,88.6L177.3,88.6z"/>
</g>
</svg>
