<?xml version="1.0" encoding="utf-8"?>
<!-- Generator: Adobe Illustrator 26.5.0, SVG Export Plug-In . SVG Version: 6.00 Build 0)  -->
<svg version="1.1" id="Capa_1" xmlns="http://www.w3.org/2000/svg" xmlns:xlink="http://www.w3.org/1999/xlink" x="0px" y="0px"
	 viewBox="0 0 360 160" style="enable-background:new 0 0 360 160;" xml:space="preserve">
<style type="text/css">
	.st0{fill:#FFFFFF;}
</style>
<g id="SVGRepo_iconCarrier_00000140717128499400341930000002462173609368601780_">
	<path class="st0" d="M94.5,82.2c0-0.8-0.4-1.5-1.1-1.8L76,70.3c-0.3-0.2-0.6-0.3-1-0.3c0,0-0.2,0-0.2,0c-0.3,0-0.7,0.1-1,0.3
		L56.3,80.4c-0.7,0.4-1.1,1.1-1.1,1.8l0,27.1c0,0.4,0.2,0.7,0.5,0.9c0.3,0.2,0.7,0.2,1.1,0l10.4-6c0.7-0.4,1.1-1.1,1.1-1.8V89.8
		c0-0.8,0.4-1.5,1.1-1.8l4.4-2.5c0.3-0.2,0.7-0.3,1.1-0.3c0.4,0,0.7,0.1,1.1,0.3l4.4,2.5c0.7,0.4,1.1,1.1,1.1,1.8v12.7
		c0,0.8,0.4,1.4,1.1,1.8l10.4,6c0.3,0.2,0.7,0.2,1.1,0c0.3-0.2,0.5-0.5,0.5-0.9L94.5,82.2L94.5,82.2z M188.1,44.9
		c-0.3-0.2-0.7-0.2-1,0c-0.3,0.2-0.5,0.5-0.5,0.9v26.9c0,0.3-0.1,0.5-0.4,0.6c-0.2,0.1-0.5,0.1-0.7,0l-4.4-2.5
		c-0.7-0.4-1.5-0.4-2.1,0l-17.5,10.1c-0.7,0.4-1.1,1.1-1.1,1.8V103c0,0.8,0.4,1.5,1.1,1.8l17.5,10.1c0.7,0.4,1.5,0.4,2.1,0
		l17.5-10.1c0.7-0.4,1.1-1.1,1.1-1.8V52.6c0-0.8-0.4-1.5-1.1-1.8L188.1,44.9L188.1,44.9z M186.4,96.4c0,0.2-0.1,0.4-0.3,0.5l-6,3.5
		c-0.2,0.1-0.4,0.1-0.5,0l-6-3.5c-0.2-0.1-0.3-0.3-0.3-0.5v-6.9c0-0.2,0.1-0.4,0.3-0.5l6-3.5c0.2-0.1,0.4-0.1,0.5,0l6,3.5
		c0.2,0.1,0.3,0.3,0.3,0.5V96.4z M250.7,89.2c0.6-0.4,1.1-1.1,1.1-1.8v-4.9c0-0.8-0.4-1.4-1.1-1.8l-17.4-10.1
		c-0.7-0.4-1.5-0.4-2.1,0l-17.5,10.1c-0.7,0.4-1.1,1.1-1.1,1.8v20.2c0,0.8,0.4,1.5,1.1,1.8l17.4,9.9c0.6,0.4,1.4,0.4,2.1,0l10.5-5.8
		c0.3-0.2,0.5-0.5,0.5-0.9c0-0.4-0.2-0.7-0.5-0.9l-17.6-10.1c-0.3-0.2-0.5-0.5-0.5-0.9v-6.3c0-0.4,0.2-0.7,0.5-0.9l5.5-3.2
		c0.3-0.2,0.7-0.2,1.1,0l5.5,3.2c0.3,0.2,0.5,0.5,0.5,0.9v5c0,0.4,0.2,0.7,0.5,0.9c0.3,0.2,0.7,0.2,1.1,0L250.7,89.2L250.7,89.2z
		 M126.4,70.5c0.7-0.4,1.5-0.4,2.1,0L146,80.6c0.7,0.4,1.1,1.1,1.1,1.8v20.2c0,0.8-0.4,1.5-1.1,1.8l-17.5,10.1
		c-0.7,0.4-1.5,0.4-2.1,0l-17.5-10.1c-0.7-0.4-1.1-1.1-1.1-1.8V82.4c0-0.8,0.4-1.5,1.1-1.8L126.4,70.5L126.4,70.5z M284.7,114.9
		c-0.6,0-1.2-0.2-1.7-0.5l-5.5-3.3c-0.8-0.5-0.4-0.6-0.2-0.7c1.1-0.4,1.3-0.5,2.5-1.1c0.1-0.1,0.3,0,0.4,0l4.2,2.5
		c0.2,0.1,0.4,0.1,0.5,0l16.5-9.5c0.2-0.1,0.2-0.3,0.2-0.4V82.8c0-0.2-0.1-0.4-0.3-0.5L285,72.8c-0.2-0.1-0.4-0.1-0.5,0L268,82.3
		c-0.2,0.1-0.3,0.3-0.3,0.5v19.1c0,0.2,0.1,0.4,0.3,0.4l4.5,2.6c2.5,1.2,4-0.2,4-1.7V84.4c0-0.3,0.2-0.5,0.5-0.5h2.1
		c0.3,0,0.5,0.2,0.5,0.5v18.8c0,3.3-1.8,5.2-4.9,5.2c-1,0-1.7,0-3.8-1l-4.3-2.5c-1.1-0.6-1.7-1.8-1.7-3V82.8c0-1.2,0.7-2.4,1.7-3
		l16.5-9.5c1-0.6,2.4-0.6,3.5,0l16.5,9.5c1.1,0.6,1.7,1.8,1.7,3v19.1c0,1.2-0.7,2.4-1.7,3l-16.5,9.5
		C285.9,114.7,285.3,114.9,284.7,114.9L284.7,114.9z M289.9,101.7c-7.2,0-8.7-3.3-8.7-6.1c0-0.3,0.2-0.5,0.5-0.5h2.1
		c0.2,0,0.4,0.2,0.5,0.4c0.3,2.2,1.3,3.3,5.7,3.3c3.5,0,5-0.8,5-2.6c0-1.1-0.4-1.9-5.8-2.4c-4.5-0.4-7.3-1.4-7.3-5.1
		c0-3.3,2.8-5.3,7.5-5.3c5.3,0,7.9,1.8,8.2,5.8c0,0.1,0,0.3-0.1,0.4c-0.1,0.1-0.2,0.2-0.4,0.2h-2.1c-0.2,0-0.4-0.2-0.5-0.4
		c-0.5-2.3-1.8-3-5.2-3c-3.8,0-4.2,1.3-4.2,2.3c0,1.2,0.5,1.6,5.6,2.2c5.1,0.7,7.5,1.6,7.5,5.2C298.1,99.7,295.1,101.7,289.9,101.7
		L289.9,101.7z M232,88.3c0.1-0.1,0.3-0.1,0.4,0l3.4,1.9c0.1,0.1,0.2,0.2,0.2,0.4v3.9c0,0.1-0.1,0.3-0.2,0.4l-3.4,1.9
		c-0.1,0.1-0.3,0.1-0.4,0l-3.4-1.9c-0.1-0.1-0.2-0.2-0.2-0.4v-3.9c0-0.1,0.1-0.3,0.2-0.4L232,88.3z"/>
</g>
</svg>
