<?xml version="1.0" encoding="utf-8"?>
<!-- Generator: Adobe Illustrator 26.5.0, SVG Export Plug-In . SVG Version: 6.00 Build 0)  -->
<svg version="1.1" id="Capa_1" xmlns="http://www.w3.org/2000/svg" xmlns:xlink="http://www.w3.org/1999/xlink" x="0px" y="0px"
	 viewBox="0 0 360 160" style="enable-background:new 0 0 360 160;" xml:space="preserve">
<style type="text/css">
	.st0{fill:#FFFFFF;}
</style>
<g id="SVGRepo_iconCarrier">
	<path class="st0" d="M149.1,80.5c0-7.7-2.2-11.7-6.6-11.9c-1.8-0.1-3.5,0.2-5.1,0.8c-1.3,0.5-2.2,0.9-2.7,1.4v18.4
		c2.8,1.8,5.3,2.6,7.5,2.5C146.8,91.4,149.1,87.7,149.1,80.5z M154.5,80.8c0,3.9-0.9,7.2-2.8,9.8c-2.1,2.9-4.9,4.4-8.6,4.5
		c-2.8,0.1-5.6-0.8-8.5-2.6v16.7l-4.7-1.7V70.4c0.8-1,1.8-1.8,3-2.5c2.8-1.6,6.2-2.5,10.2-2.5l0.1,0.1c3.7,0,6.5,1.5,8.5,4.5
		C153.6,72.8,154.5,76.4,154.5,80.8z M183.3,91.8c0,5.3-0.5,8.9-1.6,10.9c-1.1,2-3.1,3.6-6,4.8c-2.4,1-5,1.5-7.8,1.6l-0.8-3
		c2.8-0.4,4.9-0.8,6-1.2c2.3-0.8,3.9-2,4.7-3.6c0.7-1.3,1-3.8,1-7.4v-1.2c-3.2,1.5-6.6,2.2-10.2,2.2c-2.3,0-4.4-0.7-6.1-2.2
		c-2-1.6-3-3.6-3-6.1V67l4.7-1.6v19.8c0,2.1,0.7,3.7,2,4.9c1.4,1.1,3.1,1.7,5.3,1.6c2.2,0,4.5-0.9,6.9-2.5V66.1h4.7L183.3,91.8
		L183.3,91.8z M201.8,94.8c-0.5,0-1,0.1-1.6,0.1c-2.7,0-4.8-0.6-6.2-1.9c-1.5-1.3-2.2-3-2.2-5.3V69.1h-3.2v-3h3.2v-7.9l4.7-1.7v9.6
		h5.3v3h-5.3v18.5c0,1.8,0.5,3,1.4,3.8c0.8,0.6,2.1,1,3.9,1L201.8,94.8L201.8,94.8z M230.4,94.4h-4.7V76.2c0-1.9-0.4-3.5-1.3-4.8
		c-1-1.5-2.4-2.3-4.2-2.3c-2.2,0-4.9,1.1-8.1,3.4v21.8h-4.7V50.9l4.7-1.5v19.8c3-2.2,6.3-3.3,9.9-3.3c2.5,0,4.5,0.8,6.1,2.5
		c1.6,1.7,2.3,3.8,2.3,6.3L230.4,94.4L230.4,94.4L230.4,94.4z M255.5,79.7c0-3-0.6-5.4-1.7-7.4c-1.3-2.4-3.4-3.6-6.2-3.7
		c-5.2,0.3-7.8,4-7.8,11.1c0,3.3,0.5,6,1.6,8.2c1.4,2.8,3.5,4.2,6.2,4.1C252.9,92,255.5,87.9,255.5,79.7L255.5,79.7z M260.6,79.8
		c0,4.2-1.1,7.7-3.2,10.5c-2.4,3.1-5.6,4.7-9.8,4.7c-4.1,0-7.4-1.6-9.7-4.7c-2.1-2.8-3.2-6.3-3.2-10.5c0-4,1.1-7.3,3.4-10
		c2.4-2.9,5.6-4.3,9.5-4.3c3.9,0,7.1,1.4,9.6,4.3C259.5,72.5,260.6,75.8,260.6,79.8L260.6,79.8z M287.7,94.4H283V75.2
		c0-2.1-0.6-3.8-1.9-4.9c-1.3-1.2-3-1.8-5.1-1.7c-2.2,0-4.4,0.8-6.4,2.2v23.7h-4.7V70.1c2.7-2,5.2-3.3,7.5-3.9
		c2.2-0.6,4.1-0.8,5.7-0.8c1.1,0,2.2,0.1,3.2,0.3c1.9,0.4,3.4,1.2,4.5,2.4c1.3,1.3,1.9,2.8,1.9,4.7V94.4L287.7,94.4z"/>
	<path class="st0" d="M83.3,51c-2.4,0-4.7,0.2-6.8,0.6c-6,1.1-7.1,3.3-7.1,7.4v5.4h14.2v1.8H64.1c-4.1,0-7.7,2.5-8.9,7.2
		c-1.3,5.4-1.4,8.8,0,14.4c1,4.2,3.4,7.2,7.6,7.2h4.9v-6.5c0-4.7,4.1-8.8,8.9-8.8h14.2c4,0,7.1-3.3,7.1-7.2V59
		c0-3.9-3.2-6.7-7.1-7.4C88.2,51.2,85.7,51,83.3,51z M75.6,55.4c1.5,0,2.7,1.2,2.7,2.7c0,1.5-1.2,2.7-2.7,2.7
		c-1.5,0-2.7-1.2-2.7-2.7C72.9,56.6,74.1,55.4,75.6,55.4z"/>
	<path class="st0" d="M99.6,66.2v6.3c0,4.9-4.1,9-8.9,9H76.5c-3.9,0-7.1,3.3-7.1,7.2v13.5c0,3.9,3.3,6.1,7.1,7.2
		c4.5,1.3,8.8,1.6,14.2,0c3.6-1,7.1-3.1,7.1-7.2v-5.4H83.6v-1.8h21.3c4.1,0,5.7-2.9,7.1-7.2c1.5-4.5,1.4-8.7,0-14.4
		c-1-4.1-3-7.2-7.1-7.2H99.6z M91.6,100.5c1.5,0,2.7,1.2,2.7,2.7c0,1.5-1.2,2.7-2.7,2.7c-1.5,0-2.7-1.2-2.7-2.7
		C88.9,101.7,90.1,100.5,91.6,100.5z"/>
	<path class="st0" d="M296.9,61.9h0.8v-5.2h2v-0.6h-4.7v0.6h2L296.9,61.9 M300.4,61.9h0.7v-4.7l1.5,4.7h0.8l1.6-4.7v4.7h0.8v-5.8h-1
		l-1.7,5l-1.5-5h-1.1L300.4,61.9"/>
</g>
</svg>
